<?xml version="1.0" encoding="utf-8"?>
<!-- Generator: Adobe Illustrator 20.1.0, SVG Export Plug-In . SVG Version: 6.00 Build 0)  -->
<svg version="1.1" id="Слой_1" xmlns="http://www.w3.org/2000/svg" xmlns:xlink="http://www.w3.org/1999/xlink" x="0px" y="0px"
	 viewBox="0 0 870 870" style="enable-background:new 0 0 870 870;" xml:space="preserve">
<style type="text/css">
	.st0{fill:#7F7876;}
	.st1{fill:#787170;}
	.st2{clip-path:url(#SVGID_2_);}
	.st3{fill:#2F3137;}
	.st4{fill:#CAA48B;}
	.st5{fill:#DDBEA6;}
	.st6{fill:#E9D5BB;}
	.st7{fill:#5A0609;}
	.st8{fill:#34373C;}
	.st9{fill:#BBC5CD;}
	.st10{fill:#5A9C93;}
	.st11{fill:#3E424D;}
	.st12{fill:#FFFFFF;}
</style>
<g id="men_3">
	<g>
		<path class="st0" d="M838.6,455.6C838.6,236.6,661,59,441.9,59C222.9,59,45.3,236.6,45.3,455.6c0,219.1,177.6,396.6,396.6,396.6
			C661,852.3,838.6,674.7,838.6,455.6z"/>
		<path class="st1" d="M838.6,455.6C838.6,236.6,661,59,441.9,59v793.3C661,852.3,838.6,674.7,838.6,455.6z"/>
	</g>
	<g>
		<defs>
			<ellipse id="SVGID_1_" cx="441.9" cy="455.6" rx="396.6" ry="396.6"/>
		</defs>
		<clipPath id="SVGID_2_">
			<use xlink:href="#SVGID_1_"  style="overflow:visible;"/>
		</clipPath>
		<g class="st2">
			<g>
				<path class="st3" d="M514.1,631.6c0,0,110.4,16.1,126.8,33.1c14.2,14.8,43.7,156.5,50.6,187.6c-193.9,0-249.5,0-249.5,0V651.1
					L514.1,631.6z"/>
				<rect x="383.9" y="558.3" class="st4" width="116.2" height="127.4"/>
				<g>
					<path class="st5" d="M441.9,191.2c56.4,0,145.6,32.1,145.6,182.3c0,86.7-28.3,143.6-40.6,159.3c-11.3,14.5-75.1,45.3-105,45.3
						C441.9,426.2,441.9,191.2,441.9,191.2z"/>
					<path class="st5" d="M615.6,409.3c2.5-24-9-45.3-25.5-47.6c-16.6-2.3-32.1,15.3-34.6,39.3c-2.5,24,9,45.3,25.5,47.6
						C597.6,450.9,613.1,433.3,615.6,409.3z"/>
				</g>
				<g>
					<path class="st6" d="M441.9,191.2c-56.4,0-145.6,32.1-145.6,182.3c0,86.7,28.3,143.6,40.6,159.3c11.3,14.5,75.1,45.3,105,45.3
						C441.9,426.2,441.9,191.2,441.9,191.2z"/>
					<path class="st6" d="M268.3,409.3c-2.5-24,9-45.3,25.5-47.6c16.6-2.3,32.1,15.3,34.6,39.3c2.5,24-9,45.3-25.5,47.6
						C286.3,450.9,270.8,433.3,268.3,409.3z"/>
				</g>
				<path class="st7" d="M366,222.6c0,0-49.3,58.4-30.4,112.9c3.1,65-3.1,87-24.1,104.8c5.2-62.9-1-83.8-24.1-76.5
					C278,314.6,298.3,181.9,366,222.6z"/>
				<path class="st7" d="M517.5,222.6c0,0,49.3,58.4,30.4,112.9c-3.1,65,3.1,87,24.1,104.8c-5.2-62.9,1-83.8,24.1-76.5
					C605.5,314.6,585.2,181.9,517.5,222.6z"/>
				<path class="st8" d="M369.8,631.6c0,0-110.4,16.1-126.8,33.1c-14.2,14.8-43.7,156.5-50.6,187.6c193.9,0,249.5,0,249.5,0V651.1
					L369.8,631.6z"/>
				<polyline class="st9" points="515.4,628.6 441.9,643.7 368.4,628.6 441.9,852.3 				"/>
				<polygon class="st10" points="435.8,673.8 423.8,825.1 441.9,852.3 460.1,825.1 448.1,673.8 				"/>
				<path class="st11" d="M388.9,725.1l-58.5-86.7c16-5.8,33.2-10.2,51.2-13.1l60.2,226.9l-84.4-120.9L388.9,725.1z"/>
				<path class="st11" d="M494.9,725.1l58.5-86.7c-16-5.8-33.2-10.2-51.2-13.1l-60.2,226.9l84.4-120.9L494.9,725.1z"/>
				<path class="st10" d="M461.8,664.1l-19.8,20.4l-19.8-20.4l19.8-20.4L461.8,664.1z"/>
				<polygon class="st12" points="441.9,643.7 500.9,613.8 531.3,631.6 468.2,682 				"/>
				<polygon class="st12" points="441.9,643.7 383,613.8 352.6,631.6 414.6,682 				"/>
			</g>
			<path class="st7" d="M581.1,248.2C557.9,152.9,416.6,78,317.2,227.7c-6.4,29.5,21.4,43.4,21.4,43.4s18.5-43.4,103.6-23.4
				c42.3-9.3,83.6-16.2,102.6,23C563.8,309.8,581.1,248.2,581.1,248.2z"/>
			<path class="st7" d="M525.4,513.7c-29.2,0-50-23.7-83.4-23.7c-33.4,0-54.3,23.7-83.4,23.7c-32,0-52.1-55.1-58.1-74.4
				c8.2,55.6,27.1,92,36.6,104.1c11.3,14.5,75.1,45.3,105,45.3h0l0,0c29.9,0,93.6-30.8,105-45.3c9.5-12.1,28.4-48.5,36.6-104.1
				C577.5,458.5,557.4,513.7,525.4,513.7z"/>
			<path class="st12" d="M441.9,540.2c9.8,0,17.8-4.2,17.8-9.3h-35.6C424.1,536,432.1,540.2,441.9,540.2z"/>
		</g>
	</g>
</g>
</svg>
