<?xml version="1.0" encoding="utf-8"?>
<!-- Generator: Adobe Illustrator 20.1.0, SVG Export Plug-In . SVG Version: 6.00 Build 0)  -->
<svg version="1.1" id="Слой_1" xmlns="http://www.w3.org/2000/svg" xmlns:xlink="http://www.w3.org/1999/xlink" x="0px" y="0px"
	 viewBox="0 0 870 870" style="enable-background:new 0 0 870 870;" xml:space="preserve">
<style type="text/css">
	.st0{fill:#564A7D;}
	.st1{fill:#504576;}
	.st2{clip-path:url(#SVGID_2_);}
	.st3{fill:#3F1E18;}
	.st4{fill:#DFC6AC;}
	.st5{fill:#E9D5BB;}
	.st6{fill:#DDBEA6;}
	.st7{fill:#FFFFFF;}
	.st8{fill:#F0F1F1;}
	.st9{fill:#E5E5E6;}
</style>
<g id="women_5">
	<g>
		<path class="st0" d="M823.8,459.8c0-210.7-170.8-381.5-381.4-381.5c-210.7,0-381.5,170.8-381.5,381.5
			c0,210.7,170.8,381.5,381.5,381.5C653,841.3,823.8,670.5,823.8,459.8z"/>
		<path class="st1" d="M823.8,459.8c0-210.7-170.8-381.5-381.4-381.5v762.9C653,841.3,823.8,670.5,823.8,459.8z"/>
	</g>
	<g>
		<defs>
			<ellipse id="SVGID_1_" cx="442.3" cy="459.8" rx="381.5" ry="381.5"/>
		</defs>
		<clipPath id="SVGID_2_">
			<use xlink:href="#SVGID_1_"  style="overflow:visible;"/>
		</clipPath>
		<g class="st2">
			<g>
				<g>
					<g>
						<circle class="st3" cx="443.1" cy="325.8" r="167"/>
						<polygon class="st4" points="498.9,683.3 442.3,842 387.2,683.3 387.2,560.8 498.9,560.8 						"/>
						<g>
							<path class="st5" d="M443,221.3c-54.2,0-140,30.8-140,175.3c0,83.4,32.5,122.8,44.4,137.9c10.9,13.9,66.9,58.9,95.6,58.9
								C443,447.4,443,221.3,443,221.3z"/>
							<path class="st5" d="M276.1,431.1c-2.4-23.1,8.6-43.6,24.6-45.8c16-2.2,30.8,14.8,33.2,37.8c2.4,23.1-8.6,43.6-24.6,45.8
								C293.3,471.1,278.4,454.2,276.1,431.1z"/>
						</g>
						<g>
							<g>
								<g>
									<path class="st6" d="M442.6,221.3c54.2,0,140,30.8,140,175.3c0,83.4-32.5,122.8-44.4,137.9c-10.9,13.9-66.9,58.9-95.6,58.9
										C442.6,447.4,442.6,221.3,442.6,221.3z"/>
								</g>
								<g>
									<path class="st6" d="M610,431.1c2.4-23.1-8.6-43.6-24.6-45.8c-16-2.2-30.8,14.8-33.2,37.8c-2.4,23.1,8.6,43.6,24.6,45.8
										C592.8,471.1,607.7,454.2,610,431.1z"/>
								</g>
							</g>
						</g>
						<path class="st4" d="M442.3,842V689.4c0,0-41.7-10.3-50.9-44.1c-4.4-16.2-4.3-29.2-4.3-29.2s-91.1,30.8-111.5,62.6
							C258.8,729,254.2,842,254.2,842H442.3z"/>
						<path class="st4" d="M442.3,842V689.4c0,0,41.7-10.3,50.9-44.1c4.4-16.2,4.3-29.2,4.3-29.2s91.1,30.8,111.5,62.6
							C625.9,729,630.5,842,630.5,842H442.3z"/>
						<path class="st7" d="M443.1,542.5c21.1,0,38.3-13,38.3-29h-76.6C404.8,529.5,421.9,542.5,443.1,542.5z"/>
					</g>
					<path class="st3" d="M435.2,179.7c-99.1,0-129.2,86.8-129.2,126.8c-35.9,50,3.2,94.7,31,110.4c0-9.3,0-12.7,0-24.6
						c0-32.3,30.7-62.2,76.9-57.2c41.3,4.5,67.4-18.9,89.4-58.6C530.3,223.3,496.4,179.7,435.2,179.7z"/>
					<path class="st3" d="M498.9,260.1c0,0,23.2,94,86.6,125.2c11.3-84.5,18-66.7,0-111.2c-18-44.5-86.6-77.6-86.6-77.6V260.1z"/>
				</g>
				<path class="st8" d="M442.3,842V639l-55.1-23c0,0-91.1,30.8-111.5,62.6C258.8,729,254.2,842,254.2,842H442.3z"/>
				<path class="st9" d="M442.3,842V639l55.1-23c0,0,91.1,30.8,111.5,62.6C625.9,729,630.5,842,630.5,842H442.3z"/>
			</g>
			<path class="st3" d="M411.7,187c0,0-84.8-131-188.9-29.2C118.7,259.5,239,447.9,176.3,477.6c68.5-8.9,85.4-105.8,78.6-191.1
				c-5.9-75.4,60.2-111.9,111.7-81C388.2,218.4,411.7,187,411.7,187z"/>
			<polygon class="st7" points="442.3,638.9 385.6,616.1 371.7,630.2 399.9,692.8 			"/>
			<polygon class="st7" points="442.3,638.9 499.1,616.1 513,630.2 484.8,692.8 			"/>
		</g>
	</g>
</g>
</svg>
