<?xml version="1.0" encoding="utf-8"?>
<!-- Generator: Adobe Illustrator 20.1.0, SVG Export Plug-In . SVG Version: 6.00 Build 0)  -->
<svg version="1.1" id="Слой_1" xmlns="http://www.w3.org/2000/svg" xmlns:xlink="http://www.w3.org/1999/xlink" x="0px" y="0px"
	 viewBox="0 0 1920 670" style="enable-background:new 0 0 1920 670;" xml:space="preserve">
<style type="text/css">
	.st0{fill:#FFFFFF;}
	.st1{fill:none;stroke:#DBE8EC;stroke-miterlimit:10;}
	.st2{fill:none;}
	.st3{opacity:0.72;fill:#6969DB;}
	.st4{opacity:0.46;fill:#6969DB;}
	.st5{opacity:0.54;fill:#6969DB;}
	.st6{fill:#EFCF53;}
	.st7{fill:#BFC9FC;}
	.st8{fill:#F4D940;}
	.st9{fill:#98A2F2;}
	.st10{fill:#F8EB41;}
	.st11{fill:#882369;}
	.st12{fill:#C8438C;}
	.st13{fill:#A02A75;}
	.st14{fill:#E7ECED;}
	.st15{fill:#CCD5D6;}
	.st16{fill:#B7BFBF;}
	.st17{fill:none;stroke:#AFC0C3;stroke-linecap:round;stroke-miterlimit:10;}
	.st18{fill:none;stroke:#2F2F8E;stroke-miterlimit:10;}
	.st19{fill:#D93C3F;}
	.st20{fill:#E69C9D;}
	.st21{fill:#3C329B;}
	.st22{fill:#A23F3A;}
	.st23{fill:#842929;}
	.st24{fill:#9A6EDE;}
	.st25{fill:#56279B;}
	.st26{fill:#8656C8;}
	.st27{fill:#4637C9;}
	.st28{fill:#84C2E0;}
	.st29{fill:none;stroke:#2A43A0;stroke-width:0.25;stroke-miterlimit:10;}
	.st30{fill:#4C809C;}
	.st31{fill:#6EA4CA;}
	.st32{fill:#294665;}
	.st33{fill:#3A649E;}
	.st34{fill:#B99A37;}
	.st35{fill:#313131;}
</style>
<g>
	<g>
		<g>
			<g>
				<polygon class="st0" points="1050.2,-79.1 1017.2,-79.1 834,-79.1 -0.2,-79.1 -0.2,707.4 834,707.4 1017.2,707.4 1050.2,707.4 
					1919.9,707.4 1919.9,498.9 1919.9,455.3 1919.9,-79.1 				"/>
			</g>
		</g>
	</g>
	<g>
		<line class="st1" x1="0.3" y1="-12.1" x2="1920.5" y2="-12.1"/>
		<line class="st1" x1="0.3" y1="53.9" x2="1920.5" y2="53.9"/>
		<line class="st1" x1="0.3" y1="119.8" x2="1920.5" y2="119.8"/>
		<line class="st1" x1="0.3" y1="185.8" x2="1920.5" y2="185.8"/>
		<line class="st1" x1="0.3" y1="251.8" x2="1920.5" y2="251.8"/>
		<line class="st1" x1="0.3" y1="317.7" x2="1920.5" y2="317.7"/>
		<line class="st1" x1="0.3" y1="383.7" x2="1920.5" y2="383.7"/>
		<line class="st1" x1="1920.5" y1="449.6" x2="0.3" y2="449.6"/>
		<line class="st1" x1="0.3" y1="515.6" x2="1920.5" y2="515.6"/>
		<line class="st1" x1="1920.5" y1="581.5" x2="0.3" y2="581.5"/>
		<line class="st1" x1="0.3" y1="647.5" x2="1920.5" y2="647.5"/>
		<line class="st1" x1="662.4" y1="-78.4" x2="662.4" y2="707.4"/>
		<line class="st1" x1="596.2" y1="-78.4" x2="596.2" y2="707.4"/>
		<line class="st1" x1="728.7" y1="-78.4" x2="728.7" y2="707.4"/>
		<line class="st1" x1="530" y1="-78.4" x2="530" y2="707.4"/>
		<line class="st1" x1="463.8" y1="-78.4" x2="463.8" y2="707.4"/>
		<line class="st1" x1="397.6" y1="-78.4" x2="397.6" y2="707.4"/>
		<g>
			<line class="st2" x1="331.4" y1="-78.4" x2="331.4" y2="707.4"/>
		</g>
		<line class="st1" x1="265.2" y1="-78.4" x2="265.2" y2="707.4"/>
		<line class="st1" x1="199" y1="-78.4" x2="199" y2="707.4"/>
		<line class="st1" x1="132.7" y1="-78.4" x2="132.7" y2="707.4"/>
		<line class="st1" x1="66.5" y1="-78.4" x2="66.5" y2="707.4"/>
		<line class="st1" x1="1324.6" y1="-78.4" x2="1324.6" y2="707.4"/>
		<line class="st1" x1="1258.3" y1="-78.4" x2="1258.3" y2="707.4"/>
		<line class="st1" x1="1391.2" y1="-78.4" x2="1391.2" y2="707.4"/>
		<line class="st1" x1="1192.1" y1="-78.4" x2="1192.1" y2="707.4"/>
		<line class="st1" x1="1125.9" y1="-78.4" x2="1125.9" y2="707.4"/>
		<line class="st1" x1="1059.7" y1="-78.4" x2="1059.7" y2="707.4"/>
		<line class="st1" x1="927.3" y1="-78.4" x2="927.3" y2="707.4"/>
		<line class="st1" x1="861.1" y1="-78.4" x2="861.1" y2="707.4"/>
		<line class="st1" x1="993.5" y1="-78.4" x2="993.5" y2="707.4"/>
		<line class="st1" x1="794.9" y1="-78.4" x2="794.9" y2="707.4"/>
		<line class="st1" x1="1854.3" y1="-78.4" x2="1854.3" y2="707.4"/>
		<line class="st1" x1="1788" y1="-78.4" x2="1788" y2="707.4"/>
		<line class="st1" x1="1721.8" y1="-78.4" x2="1721.8" y2="707.4"/>
		<line class="st1" x1="1655.6" y1="-78.4" x2="1655.6" y2="707.4"/>
		<line class="st1" x1="1589.4" y1="-78.4" x2="1589.4" y2="707.4"/>
		<line class="st1" x1="1523.2" y1="-78.4" x2="1523.2" y2="707.4"/>
		<line class="st1" x1="1457" y1="-78.4" x2="1457" y2="707.4"/>
		<line class="st0" x1="1390.8" y1="-78.4" x2="1390.8" y2="707.4"/>
	</g>
	<path class="st3" d="M1919.9-79.1c0,0,0,786.5,0,786.5H-0.2V518.2c0,0,422,171.7,510,27.3c106.4-174.6,200.7-100.3,373-85.2
		c172.2,15.2,32.3-70.8,71.8-138.7c39.5-67.9,143.5-67.9,287.1-27.6c143.5,40.3,100.1-59.1,111.2-116
		c55.4-282.5,100.9-86.7,284.8-194c37.9-22.1,82,12.3,87.8,52.5c3.9,26.7-5.6,53.6-18,77.6c-8.9,17.3-19.8,34.9-19,54.3
		c2.3,56.9,72.6,85.1,74.5,147.4c0.2,6.4,91.7-94.8,94.8-114.8c10.8-70.3-46-109.9-4.6-173.1C1867.9,5.5,1919.9-52,1919.9-79.1z"/>
	<path class="st4" d="M-0.2,647.5c0,0,502.6,72.5,607.8-60.8s392,12.7,450.4-129.1c58.4-141.7,186.3-114.2,360.8-100.4
		c174.5,13.7,149.4-177.6,344.3-41.3c0,0,94.8-30.4,153.1-106.9l3.9,498.4H-0.2V647.5z"/>
	<ellipse class="st5" cx="1762.4" cy="627.8" rx="128.5" ry="52.7"/>
	<g>
		<g>
			<path class="st6" d="M1762.4,591.3c-53.4,0-96.7,15.1-96.7,33.7c0,18.6,43.3,33.7,96.7,33.7c53.4,0,96.7-15.1,96.7-33.7
				C1859.1,606.4,1815.8,591.3,1762.4,591.3z M1762.4,647.6c-40.3,0-72.9-10.1-72.9-22.6c0-12.5,32.6-22.6,72.9-22.6
				c40.3,0,72.9,10.1,72.9,22.6C1835.3,637.5,1802.7,647.6,1762.4,647.6z"/>
		</g>
		<g>
			<path class="st0" d="M1839.2,561.8L1839.2,561.8c0-3.2-1-6.2-2.8-9.1l-50.5-162.1l5.8-66.7h0c-0.1-5.7-16.4-10.3-29.2-10.3
				s-29,4.6-29.2,10.3h0l5.8,66.7l-51,162.1c-1.8,2.9-2.9,6-2.9,9.2l0,0h0c0,0,0,0.1,0,0.1c0,19,34.5,34.4,77,34.4
				c42.5,0,77-15.4,77-34.4C1839.2,561.8,1839.2,561.8,1839.2,561.8L1839.2,561.8z"/>
			<ellipse class="st7" cx="1762.4" cy="323.9" rx="29.2" ry="13"/>
			<path class="st8" d="M1828.8,559.2c0,0,0,0.1,0,0.1c0,16.4-29.8,29.7-66.6,29.7c-36.8,0-66.6-13.3-66.6-29.7v-0.1
				c0-2.8,0.9-5.4,2.5-8l22-69.8c9,8.1,24.5,13.5,42.1,13.5c17.8,0,33.4-5.4,42.3-13.6l21.8,70.1
				C1827.9,553.8,1828.7,556.4,1828.8,559.2L1828.8,559.2L1828.8,559.2z"/>
			<ellipse class="st9" cx="1762.4" cy="323.9" rx="17.5" ry="7.8"/>
			<ellipse class="st10" cx="1762.2" cy="482.4" rx="42.2" ry="14.6"/>
		</g>
		<path class="st6" d="M1762.4,375.5c-15.8,0-29.1,3.9-32.1,9.1h-60h-4h-0.6V625h4.6V389.2h60c3,5.2,16.3,9.1,32.1,9.1
			c18.1,0,32.8-5.1,32.8-11.4C1795.2,380.6,1780.5,375.5,1762.4,375.5z M1762.4,394.6c-13.6,0-24.7-3.4-24.7-7.7
			c0-4.2,11.1-7.7,24.7-7.7c13.6,0,24.7,3.4,24.7,7.7C1787.1,391.1,1776.1,394.6,1762.4,394.6z"/>
	</g>
	<g>
		<path class="st5" d="M1387.5,383.5l-343.9,133.9c-3.6,1.4-6,4.9-6,8.7v0.4c0,2.8,1.3,5.5,3.5,7.3l186.5,150.6
			c2.9,2.3,6.8,2.7,10.1,1.1L1589.5,509c3.2-1.6,5.2-4.8,5.2-8.4l0,0c0-3.4-1.8-6.5-4.8-8.2l-194.4-108.4
			C1393,382.7,1390,382.5,1387.5,383.5z"/>
		<path class="st11" d="M1055.5,526.8l181.6,152.6c0,0,89.6-81.8,181.6-100.2l-179.9-125.5c0,0-112.7,5-183.3,67.4V526.8z"/>
		<path class="st11" d="M1570.7,490.5c0,0-96,28.2-152,88.7l-179.9-125.5c0,0,42.1-76.5,139.4-76.8l192.5,107.9V490.5z"/>
		<path class="st12" d="M1055.5,521.1l181.6,152.6c0,0,89.6-81.8,181.6-100.2l-179.9-125.5C1238.9,447.9,1125.9,452.2,1055.5,521.1z
			"/>
		<path class="st13" d="M1570.7,484.8c0,0-96,28.2-152,88.7l-179.9-125.5c0,0,42.1-76.5,139.4-76.8L1570.7,484.8z"/>
		<path class="st0" d="M1414.6,570.8c-76-8-179.4,36.9-179.4,36.9l-168.2-129.2c80.9-63.3,171.7-30.6,171.7-30.6l149,104.2
			L1414.6,570.8z"/>
		<path class="st14" d="M1561.3,435.6c0,0-131.7,81.4-146.6,135.2l-175.8-122.9c0,0,15.1-89.7,133-81.2L1561.3,435.6z"/>
		<path class="st15" d="M1414.6,570.8c-76-8-175.1,83-175.1,83l-4.3-46.1c0,0,81.5-86.3,178.5-44.7L1414.6,570.8z"/>
		<path class="st16" d="M1564.4,473.6c0,0-134.8,43.4-149.8,97.2l-0.8-7.8c0,0,28.6-95.7,147.5-127.5L1564.4,473.6z"/>
		<polygon class="st16" points="1235.3,607.8 1067.1,478.5 1063.2,510 1239.6,653.9 		"/>
		<path class="st17" d="M1268.1,453.7c0,0,25-64.9,104.3-73.8"/>
		<path class="st17" d="M1287.8,466.4c0,0,32.4-65.8,111.8-74.8"/>
		<path class="st18" d="M1426.7,403.4"/>
		<path class="st17" d="M1308.3,479.6c0,0,23.5-38.5,60.5-54.8"/>
		<path class="st17" d="M1097.2,483.9c0,0,34.3-32.7,81.7-34.3"/>
		<path class="st17" d="M1114.4,495.4c0,0,22-19.9,49.4-24.9"/>
		<path class="st17" d="M1133.8,509.2c0,0,30-36.5,119.3-34.6"/>
	</g>
	<g>
		<g>
			
				<ellipse transform="matrix(0.2677 -0.9635 0.9635 0.2677 892.8508 1720.5692)" class="st0" cx="1578.4" cy="272.9" rx="18.8" ry="18.8"/>
		</g>
		<g>
			
				<rect x="1557.2" y="190.5" transform="matrix(0.9003 -0.4353 0.4353 0.9003 53.7118 702.2197)" class="st0" width="4.6" height="86.7"/>
		</g>
		<g>
			
				<rect x="1516.2" y="279.4" transform="matrix(0.9608 -0.2774 0.2774 0.9608 -17.3934 440.3851)" class="st0" width="63.4" height="4.6"/>
		</g>
		<g>
			
				<rect x="1588.6" y="270.6" transform="matrix(0.9332 -0.3592 0.3592 0.9332 -3.5684 591.9296)" class="st0" width="4.6" height="70"/>
		</g>
		<g>
			
				<rect x="1551.8" y="237.9" transform="matrix(0.2032 -0.9791 0.9791 0.2032 1027.7909 1743.4674)" class="st0" width="66.7" height="4.6"/>
		</g>
		<g>
			
				<rect x="1575" y="259" transform="matrix(0.8459 -0.5333 0.5333 0.8459 106.6714 891.8466)" class="st0" width="43.4" height="4.6"/>
		</g>
		<g>
			<circle class="st8" cx="1517.5" cy="290.5" r="11.6"/>
		</g>
		<g>
			<circle class="st8" cx="1603.5" cy="338.2" r="11.6"/>
		</g>
		<g>
			<circle class="st8" cx="1615.1" cy="249.8" r="11.6"/>
		</g>
		<g>
			<circle class="st8" cx="1540.6" cy="194.9" r="11.6"/>
		</g>
		<g>
			<circle class="st8" cx="1591.9" cy="207.5" r="11.6"/>
		</g>
	</g>
	<g>
		<path class="st5" d="M592.6,523l245,180c3.3,2.4,7.6,2.7,11.2,0.9l183.5-95.6c7.4-3.8,7.6-14.2,0.5-18.5l-252.2-150
			c-2.8-1.6-6.1-1.9-9.1-0.8l-176.2,65.5C587.3,507.5,585.8,518.1,592.6,523z"/>
		<polygon class="st19" points="608.7,473.5 842.1,643.1 1021.5,552.8 787.8,419.7 		"/>
		<path class="st20" d="M987.5,549.6"/>
		<polygon class="st21" points="812.3,666.8 842.1,688.5 812.3,666.8 		"/>
		<path class="st22" d="M842.1,643.1L608.7,473.5c0,0-13,21.2,0,45.4l203.5,147.9l29.8,21.7C842.1,688.5,833.2,672.6,842.1,643.1z"
			/>
		<path class="st0" d="M1017.8,557.6L1017.8,557.6L1017.8,557.6L1017.8,557.6L845.7,645l-4.7,2.4c-5.2,20.1-1.9,33.2,0.1,38.4l0,0.2
			l0.1,0c0,0.1,0,0.1,0.1,0.2l0.9-0.7l175.8-88C1025.6,577.4,1017.8,557.6,1017.8,557.6z"/>
		<g>
			<path class="st2" d="M844,684.7l177.5-89.1v-40L845.7,645C845.7,645,836.4,664.3,844,684.7z"/>
			<path class="st23" d="M1021.5,552.8v2.9l-3.7,1.9L845.7,645c0,0-9.1,18.9-1.8,39.2c0.1,0.2,0.1,0.4,0.2,0.6l177.5-89.1v2.5
				l-179.4,90.3c0,0-0.4-0.8-1-2.3c-1.9-5.1-5.5-18.3-0.2-38.8c0.3-1.4,0.8-2.8,1.2-4.3L1021.5,552.8z"/>
		</g>
	</g>
</g>
<g>
	<polygon class="st24" points="672.2,468 846.7,594.9 980.8,527.3 794.1,429.1 	"/>
	<path class="st24" d="M955.4,524.9"/>
	<polygon class="st25" points="824.4,612.6 846.7,628.8 824.4,612.6 	"/>
	<path class="st26" d="M846.7,594.9L672.2,468c0,0-9.7,15.8,0,34l152.2,110.6l22.3,16.2C846.7,628.8,840,616.9,846.7,594.9z"/>
	<path class="st0" d="M978,530.9L978,530.9L978,530.9L978,530.9l-128.7,65.4l-3.5,1.8c-3.9,15-1.4,24.8,0,28.7l0,0.1l0.1,0
		c0,0,0,0.1,0,0.1l0.7-0.5L978,560.8C983.9,545.7,978.1,531,978,530.9z"/>
	<g>
		<path class="st2" d="M848.1,626l132.7-66.6v-29.9l-131.5,66.8C849.3,596.3,842.4,610.7,848.1,626z"/>
		<path class="st25" d="M980.9,527.3v2.2l-2.8,1.4l-128.7,65.4c0,0-6.8,14.1-1.3,29.3c0,0.1,0.1,0.3,0.1,0.4l132.7-66.6v1.9
			l-134.2,67.5c0,0-0.3-0.6-0.8-1.7c-1.4-3.8-4.1-13.7-0.1-29c0.3-1,0.6-2.1,0.9-3.2L980.9,527.3z"/>
	</g>
	<polygon class="st27" points="852.2,617.4 866.9,630.4 870.5,625 880.8,625 862.8,612.6 	"/>
</g>
<g>
	<polygon class="st28" points="683.9,435.6 845,552.7 968.8,490.3 796.5,399.7 	"/>
	<g>
		<polygon class="st0" points="732.4,442.7 774.8,470.7 845.8,443.4 803.6,419.2 		"/>
		<line class="st29" x1="745.4" y1="447.4" x2="808.5" y2="425.3"/>
		<line class="st29" x1="757.4" y1="454.1" x2="819.3" y2="431.9"/>
		<line class="st29" x1="769.8" y1="462.1" x2="830.9" y2="439"/>
	</g>
	<path class="st28" d="M945.3,488.1"/>
	<polygon class="st30" points="824.4,569 845,584 824.4,569 	"/>
	<path class="st31" d="M845,552.7L683.9,435.6c0,0-9,14.6,0,31.3L824.4,569l20.6,15C845,584,838.8,573,845,552.7z"/>
	<path class="st0" d="M966.2,493.6L966.2,493.6L966.2,493.6L966.2,493.6L847.4,554l-3.3,1.7c-3.6,13.8-1.3,22.9,0,26.5l0,0.1l0.1,0
		c0,0,0,0.1,0,0.1l0.6-0.5l121.3-60.7C971.6,507.3,966.2,493.7,966.2,493.6z"/>
	<g>
		<path class="st2" d="M846.3,581.4l122.5-61.5v-27.6L847.4,554C847.4,554,841,567.2,846.3,581.4z"/>
		<path class="st30" d="M968.8,490.3v2l-2.6,1.3L847.4,554c0,0-6.3,13-1.2,27c0,0.1,0.1,0.3,0.1,0.4l122.5-61.5v1.7L845,584
			c0,0-0.3-0.5-0.7-1.6c-1.3-3.5-3.8-12.6-0.1-26.8c0.2-1,0.5-2,0.8-3L968.8,490.3z"/>
	</g>
	<polygon class="st27" points="853.3,563.3 866.9,577.4 870.2,571.5 879.8,571.5 863.1,558.1 	"/>
</g>
<g>
	<path class="st10" d="M1115.6,273.7L1115.6,273.7c4.8-8.9,7.6-19.2,7.6-30.1c0-35-28.4-63.4-63.4-63.4c-35,0-63.4,28.4-63.4,63.4
		c0,10.9,2.7,21.1,7.6,30.1l0,0c0,0,0,0,0,0c2,3.7,4.3,7.1,7,10.3c17.2,26.1,18.8,33.7,18.8,33.7l31.1,11.2l29.2-11.2
		c0,0,1.5-7.6,18.8-33.7C1111.2,280.9,1113.6,277.4,1115.6,273.7C1115.6,273.7,1115.6,273.7,1115.6,273.7z"/>
	<circle class="st32" cx="1049.6" cy="264.7" r="7.5"/>
	<rect x="1048.2" y="264.7" class="st32" width="2.9" height="60.5"/>
	<circle class="st32" cx="1067.2" cy="276.3" r="7.5"/>
	<rect x="1065.7" y="276.3" class="st32" width="2.9" height="60.5"/>
	<path class="st33" d="M1084.1,361.2h-48.8c-3.2,0-5.7-2.6-5.7-5.7v-37.7h60.3v37.7C1089.8,358.6,1087.3,361.2,1084.1,361.2z"/>
	<rect x="1029.6" y="323.8" class="st32" width="60.3" height="2.8"/>
	<rect x="1029.6" y="330.1" class="st32" width="60.3" height="2.8"/>
</g>
<g>
	<polygon class="st34" points="197.3,627.6 196.9,622.8 419.9,507.3 463.5,513.6 463.8,518.4 247.7,639.1 	"/>
	<polygon class="st6" points="463.5,513.7 460.4,515.4 460.3,515.4 457.2,517.1 457.2,517.1 454.8,518.4 451.7,520.2 447.6,522.5 
		444.5,524.2 442.1,525.6 439,527.3 436.3,528.9 433.1,530.6 433.1,530.6 430.7,532 427.6,533.7 424.9,535.2 421.7,537 419.3,538.3 
		419.3,538.3 416.2,540.1 413.5,541.6 410.3,543.3 407.9,544.7 404.8,546.4 404.8,546.4 402,548 398.9,549.7 398.9,549.7 
		396.5,551.1 393.4,552.8 390.7,554.3 390.6,554.4 387.5,556.1 385.1,557.5 382,559.2 379.3,560.7 376.1,562.5 373.7,563.8 
		370.6,565.5 367.9,567.1 364.7,568.9 364.7,568.9 362.3,570.2 359.2,571.9 356.5,573.5 356.4,573.5 353.3,575.2 350.9,576.5 
		350.9,576.5 347.8,578.3 345.1,579.8 341.9,581.6 339.5,582.9 339.5,582.9 336.4,584.6 333.7,586.2 330.5,587.9 330.5,587.9 
		328.1,589.3 328,589.3 325,591 322.3,592.5 319.1,594.3 316.7,595.7 313.6,597.4 310.8,598.9 307.7,600.7 305.3,602 302.2,603.8 
		299.5,605.3 296.3,607.1 293.9,608.4 290.8,610.2 290.7,610.2 288.1,611.7 284.9,613.4 284.9,613.4 282.5,614.8 279.4,616.5 
		276.7,618 273.5,619.8 271.1,621.1 268,622.9 265.2,624.4 262.1,626.2 259.7,627.5 256.6,629.2 256.5,629.2 253.8,630.8 
		253.8,630.8 250.7,632.5 250.7,632.5 248.3,633.9 247.4,634.4 197,622.8 419.6,502.6 	"/>
	<g>
		<polygon class="st35" points="460.3,515.4 457.2,517.1 457.2,517.1 442.4,513.4 445.6,511.7 		"/>
		<polygon class="st35" points="444.5,524.2 430.2,520.7 433.4,519 447.6,522.5 		"/>
		<polygon class="st35" points="436.3,528.9 421.9,525.3 418.7,527 433.1,530.6 433.1,530.6 		"/>
		<polygon class="st35" points="424.9,535.2 421.7,537 407.2,533.4 410.4,531.7 		"/>
		<polygon class="st35" points="410.3,543.3 395.6,539.7 398.8,538 413.5,541.6 		"/>
		<polygon class="st35" points="402,548 387.3,544.3 384.1,546 398.9,549.7 398.9,549.7 		"/>
		<polygon class="st35" points="390.7,554.3 390.6,554.4 375.8,550.7 372.6,552.4 387.5,556.1 		"/>
		<polygon class="st35" points="376.1,562.5 361.1,558.7 364.3,557 379.3,560.7 		"/>
		<polygon class="st35" points="367.9,567.1 352.8,563.4 349.6,565 364.7,568.9 364.7,568.9 		"/>
		<polygon class="st35" points="356.5,573.5 356.4,573.5 341.2,569.7 338,571.4 353.3,575.2 		"/>
		<polygon class="st35" points="341.9,581.6 326.5,577.7 329.7,576 345.1,579.8 		"/>
		<polygon class="st35" points="333.7,586.2 318.2,582.4 315,584.1 330.5,587.9 330.5,587.9 		"/>
		<polygon class="st35" points="319.1,594.3 303.5,590.4 306.7,588.7 322.3,592.5 		"/>
		<polygon class="st35" points="307.7,600.7 291.9,596.7 295.2,595 310.8,598.9 		"/>
		<polygon class="st35" points="296.3,607.1 280.4,603.1 283.6,601.4 299.5,605.3 		"/>
		<polygon class="st35" points="288.1,611.7 272.1,607.7 268.9,609.4 284.9,613.4 284.9,613.4 		"/>
		<polygon class="st35" points="273.5,619.8 257.4,615.8 260.6,614.1 276.7,618 		"/>
		<polygon class="st35" points="262.1,626.2 245.8,622.1 249,620.4 265.2,624.4 		"/>
		<polygon class="st35" points="253.8,630.8 253.8,630.8 237.5,626.7 234.3,628.5 250.7,632.5 250.7,632.5 		"/>
	</g>
	<g>
		<polygon class="st35" points="454.8,518.4 451.7,520.2 444.9,518.5 448.1,516.8 		"/>
		<polygon class="st35" points="439,527.3 432.7,525.7 435.9,524.1 442.1,525.6 		"/>
		<polygon class="st35" points="427.6,533.7 421.1,532.1 424.3,530.4 430.7,532 		"/>
		<polygon class="st35" points="419.3,538.3 419.3,538.3 412.8,536.7 409.6,538.4 416.2,540.1 		"/>
		<polygon class="st35" points="407.9,544.7 401.3,543.1 398.1,544.8 404.8,546.4 404.8,546.4 		"/>
		<polygon class="st35" points="396.5,551.1 393.4,552.8 386.6,551.1 389.8,549.4 		"/>
		<polygon class="st35" points="385.1,557.5 382,559.2 375,557.4 378.2,555.7 		"/>
		<polygon class="st35" points="373.7,563.8 370.6,565.5 363.5,563.8 366.7,562.1 		"/>
		<polygon class="st35" points="362.3,570.2 359.2,571.9 352,570.1 355.2,568.4 		"/>
		<polygon class="st35" points="350.9,576.5 347.8,578.3 340.5,576.5 343.7,574.8 		"/>
		<polygon class="st35" points="339.5,582.9 336.4,584.6 329,582.8 332.2,581.1 		"/>
		<polygon class="st35" points="328,589.3 325,591 317.4,589.1 320.6,587.4 		"/>
		<polygon class="st35" points="316.7,595.7 313.6,597.4 305.9,595.5 309.1,593.8 		"/>
		<polygon class="st35" points="305.3,602 302.2,603.8 294.4,601.8 297.6,600.1 		"/>
		<polygon class="st35" points="293.9,608.4 290.8,610.2 290.7,610.2 282.9,608.2 286.1,606.5 		"/>
		<polygon class="st35" points="279.4,616.5 271.4,614.5 274.6,612.8 282.5,614.8 		"/>
		<polygon class="st35" points="271.1,621.1 268,622.9 259.8,620.9 263,619.1 		"/>
		<polygon class="st35" points="259.7,627.5 256.6,629.2 256.5,629.2 248.3,627.2 251.5,625.5 		"/>
	</g>
</g>
<g>
</g>
<g>
</g>
<g>
</g>
<g>
</g>
<g>
</g>
<g>
</g>
<g>
</g>
<g>
</g>
<g>
</g>
<g>
</g>
<g>
</g>
<g>
</g>
<g>
</g>
<g>
</g>
<g>
</g>
</svg>
