<?xml version="1.0" encoding="utf-8"?>
<!-- Generator: Adobe Illustrator 20.1.0, SVG Export Plug-In . SVG Version: 6.00 Build 0)  -->
<svg version="1.1" id="Слой_1" xmlns="http://www.w3.org/2000/svg" xmlns:xlink="http://www.w3.org/1999/xlink" x="0px" y="0px"
	 viewBox="0 0 800 600" style="enable-background:new 0 0 800 600;" xml:space="preserve">
<style type="text/css">
	.st0{fill:#0E97CD;}
	.st1{fill:#1958DB;}
	.st2{fill:#B3E3EF;}
	.st3{fill:#025482;}
	.st4{fill:#0C5A9A;}
	.st5{fill:#03436B;}
	.st6{fill:#4396CA;}
	.st7{fill:#FFFFFF;}
	.st8{fill:#FF645F;}
	.st9{fill:#29266B;}
	.st10{fill:#DA3F3A;}
	.st11{fill:#F7958D;}
	.st12{fill:#FCA89E;}
	.st13{clip-path:url(#SVGID_2_);}
	.st14{clip-path:url(#SVGID_4_);}
	.st15{fill:#97C7D3;}
	.st16{clip-path:url(#SVGID_6_);}
	.st17{fill:#D2F7FF;}
	.st18{clip-path:url(#SVGID_8_);}
	.st19{clip-path:url(#SVGID_10_);}
	.st20{fill:#F5ABBC;}
	.st21{clip-path:url(#SVGID_12_);}
	.st22{fill:#4E687F;}
	.st23{clip-path:url(#SVGID_14_);}
	.st24{fill:#2A2873;}
	.st25{fill:#A2CCDA;}
	.st26{fill:#823024;}
</style>
<g>
	<g>
		<g>
			<g>
				<polygon class="st0" points="78.7,438.1 141.9,379.7 647,379.7 702.7,438.1 				"/>
			</g>
		</g>
		<g>
			<g>
				<path class="st1" d="M639.1,386.3H142.3c-8.2,0-14.8-6.9-14.8-15.3V60c0-8.5,6.6-15.3,14.8-15.3h496.8c8.2,0,14.8,6.9,14.8,15.3
					v311C654,379.5,647.3,386.3,639.1,386.3z"/>
			</g>
		</g>
		<g>
			<g>
				<path class="st2" d="M619.8,373.5H161.6c-7.6,0-13.7-6.1-13.7-13.7V82.3c0-7.6,6.1-13.7,13.7-13.7h458.2
					c7.6,0,13.7,6.1,13.7,13.7v277.5C633.5,367.4,627.4,373.5,619.8,373.5z"/>
			</g>
		</g>
		<g>
			<g>
				<circle class="st3" cx="390.7" cy="54.7" r="5.6"/>
			</g>
		</g>
		<g>
			<g>
				<path class="st4" d="M670.8,484.6h-560c-17.7,0-32-14.3-32-32v-14.5h624v14.5C702.7,470.3,688.4,484.6,670.8,484.6z"/>
			</g>
		</g>
		<g>
			<g>
				<path class="st5" d="M283,386.2c0,3.1-2.5,5.6-5.6,5.6h-63.1c-3.1,0-5.6-2.5-5.6-5.6l0,0c0-3.1,2.5-5.6,5.6-5.6h63.1
					C280.5,380.6,283,383.1,283,386.2L283,386.2z"/>
			</g>
		</g>
		<g>
			<g>
				<path class="st5" d="M582,386.2c0,3.1-2.5,5.6-5.6,5.6h-63.1c-3.1,0-5.6-2.5-5.6-5.6l0,0c0-3.1,2.5-5.6,5.6-5.6h63.1
					C579.5,380.6,582,383.1,582,386.2L582,386.2z"/>
			</g>
		</g>
		<g>
			<g>
				<polygon class="st6" points="317.4,429.8 338.1,410.6 445.8,410.6 464.1,429.8 				"/>
			</g>
		</g>
		<g>
			<g>
				<rect x="374.5" y="398.8" class="st7" width="34.8" height="1.7"/>
			</g>
		</g>
		<g>
			<g>
				<g>
					<rect x="120.5" y="423.8" class="st7" width="39" height="1.7"/>
				</g>
			</g>
			<g>
				<g>
					<rect x="153.5" y="398.8" class="st7" width="34.8" height="1.7"/>
				</g>
			</g>
			<g>
				<g>
					<rect x="138.6" y="410.2" class="st7" width="34.8" height="1.7"/>
				</g>
			</g>
			<g>
				<g>
					<rect x="221.3" y="398.8" class="st7" width="34.8" height="1.7"/>
				</g>
			</g>
			<g>
				<g>
					<rect x="203.6" y="410.2" class="st7" width="34.8" height="1.7"/>
				</g>
			</g>
			<g>
				<g>
					<rect x="245.9" y="423.8" class="st7" width="39" height="1.7"/>
				</g>
			</g>
			<g>
				<g>
					<rect x="287.2" y="398.8" class="st7" width="34.8" height="1.7"/>
				</g>
			</g>
			<g>
				<g>
					<rect x="269.6" y="410.2" class="st7" width="34.8" height="1.7"/>
				</g>
			</g>
			<g>
				<g>
					<rect x="183.7" y="426.6" class="st7" width="39" height="1.7"/>
				</g>
			</g>
		</g>
		<g>
			<g>
				<g>
					<rect x="628.4" y="423.8" class="st7" width="39" height="1.7"/>
				</g>
			</g>
			<g>
				<g>
					<rect x="599.7" y="398.8" class="st7" width="34.8" height="1.7"/>
				</g>
			</g>
			<g>
				<g>
					<rect x="614.5" y="410.2" class="st7" width="34.8" height="1.7"/>
				</g>
			</g>
			<g>
				<g>
					<rect x="531.9" y="398.8" class="st7" width="34.8" height="1.7"/>
				</g>
			</g>
			<g>
				<g>
					<rect x="549.5" y="410.2" class="st7" width="34.8" height="1.7"/>
				</g>
			</g>
			<g>
				<g>
					<rect x="503.1" y="423.8" class="st7" width="39" height="1.7"/>
				</g>
			</g>
			<g>
				<g>
					<rect x="465.9" y="398.8" class="st7" width="34.8" height="1.7"/>
				</g>
			</g>
			<g>
				<g>
					<rect x="483.6" y="410.2" class="st7" width="34.8" height="1.7"/>
				</g>
			</g>
			<g>
				<g>
					<rect x="565.3" y="426.6" class="st7" width="39" height="1.7"/>
				</g>
			</g>
		</g>
	</g>
	<g>
		<g>
			<g>
				<g>
					<path class="st8" d="M136.5,269.6c0,0-25.9,22.8-21.8,32.8c4,9.8,8,7.5,33.9,7.3c11.4-0.1,20.6,0.4,25.2-1.7
						c9-4.1,6.8-10.2,4.5-13.8C170.1,280.9,161,270,161,270L136.5,269.6z"/>
				</g>
			</g>
		</g>
		<g>
			<g>
				<g>
					<path class="st9" d="M105.7,399.8h66.2v15.9c0,8.6-7,15.6-15.6,15.6h-50.6c-8.6,0-15.6-7-15.6-15.6v-0.3
						C90.1,406.8,97.1,399.8,105.7,399.8z"/>
				</g>
			</g>
		</g>
		<g>
			<g>
				<g>
					<path class="st10" d="M171.9,399.8h-49.8l4.7-14.8l-10.4-58.5c-0.6-6.6,4.6-12.2,11.2-12.2h39.3c6.6,0,11.8,5.6,11.2,12.2
						l-8.7,60L171.9,399.8z"/>
				</g>
			</g>
		</g>
		<g>
			<g>
				<g>
					<path class="st11" d="M150.3,318.8h-7.7c-2.4,0-4.3-2.2-4.3-4.9v-9.5c0-2.7,1.9-4.9,4.3-4.9h7.7c2.4,0,4.3,2.2,4.3,4.9v9.5
						C154.6,316.6,152.7,318.8,150.3,318.8z"/>
				</g>
			</g>
		</g>
		<g>
			<g>
				<g>
					<path class="st12" d="M163.4,299.6c-3.1,10.4-11.8,8.8-22.2,5.7c-10.4-3.1-16.4-14-13.3-24.5c3.1-10.4,14-16.4,24.5-13.3
						C162.7,270.7,166.5,289.2,163.4,299.6z"/>
				</g>
			</g>
		</g>
		<g>
			<g>
				<g>
					<path class="st8" d="M131.7,278.5c0,0,28.5,3.5,37.1,0c8.1-3.3,11-9.1,4.8-15.5c-7.9-8.2-20.7-4-32,3.8
						C137.9,269.5,131.7,278.5,131.7,278.5z"/>
				</g>
			</g>
		</g>
		<g>
			<defs>
				<path id="SVGID_1_" d="M163.4,299.6c-3.1,10.4-11.8,8.8-22.2,5.7c-10.4-3.1-16.4-14-13.3-24.5c3.1-10.4,14-16.4,24.5-13.3
					C162.7,270.7,166.5,289.2,163.4,299.6z"/>
			</defs>
			<clipPath id="SVGID_2_">
				<use xlink:href="#SVGID_1_"  style="overflow:visible;"/>
			</clipPath>
			<g class="st13">
				<g>
					<g>
						<path class="st8" d="M141.7,277.3c0,0,0,7-1,7c-1,0-4.6-1.4-7.2,1.9c-2.6,3.4,0.2,6.7,3.4,7.4c3.1,0.7,1,8.9-6.5,7.4
							c-7.4-1.4-10.1-18.9-6.2-25.7c3.8-6.7,16.1-14.1,20.4-13.7c4.3,0.5,6.5,10.8,6.5,10.8L141.7,277.3z"/>
					</g>
				</g>
			</g>
		</g>
		<g>
			<g>
				<g>
					<path class="st9" d="M91.1,412.1L83,502.8h12c0,0,19.2-59.1,21.1-78.3c1.9-19.2-12-15.8-12-15.8L91.1,412.1z"/>
				</g>
			</g>
		</g>
		<g>
			<g>
				<g>
					<path class="st9" d="M129,412.1l-8.2,90.7h12c0,0,19.2-59.1,21.1-78.3c1.9-19.2-12-15.8-12-15.8L129,412.1z"/>
				</g>
			</g>
		</g>
		<g>
			<g>
				<g>
					<polygon class="st10" points="117.5,321 99.7,354.5 123.7,352.6 					"/>
				</g>
			</g>
		</g>
		<g>
			<g>
				<g>
					<path class="st10" d="M175.1,318l30.9,44.6c1.4,3.1,0.3,7.9-2.9,9l-47.8,10.8l-6.2-10.5l33.6-12.1l-24.1-24.1L175.1,318z"/>
				</g>
			</g>
		</g>
		<g>
			<g>
				<g>
					<path class="st12" d="M154.6,379.8h-19.7l-1.4-8.6h14.8c2.8,0,5.2,2,5.6,4.8L154.6,379.8z"/>
				</g>
			</g>
		</g>
		<g>
			<g>
				<g>
					<path class="st8" d="M83.2,502.8h11.7v9H71.1c-1.6,0-2.1-3.5-0.7-4.3L83.2,502.8z"/>
				</g>
			</g>
		</g>
		<g>
			<g>
				<g>
					<path class="st8" d="M120.8,502.8h11.7v9h-23.8c-1.6,0-2.1-3.5-0.7-4.3L120.8,502.8z"/>
				</g>
			</g>
		</g>
		<g>
			<defs>
				<path id="SVGID_3_" d="M171.9,399.6h-49.4l-6.2-73.2c-0.6-6.6,4.6-12.2,11.2-12.2h39.3c6.6,0,11.8,5.6,11.2,12.2l-8.7,60
					L171.9,399.6z"/>
			</defs>
			<clipPath id="SVGID_4_">
				<use xlink:href="#SVGID_3_"  style="overflow:visible;"/>
			</clipPath>
			<g class="st14">
				<g>
					<g>
						<polygon class="st6" points="148.2,372.3 147.9,371.3 177.8,361.1 178.1,362.1 						"/>
					</g>
				</g>
			</g>
			<g class="st14">
				<g>
					<g>
						
							<rect x="151.1" y="378.7" transform="matrix(0.9965 -8.390877e-02 8.390877e-02 0.9965 -31.2227 15.4651)" class="st6" width="34.4" height="1"/>
					</g>
				</g>
			</g>
		</g>
		<g>
			<g>
				<g>
					<polygon class="st15" points="144.3,379.9 82.4,379.9 73.9,341.5 135.8,341.5 					"/>
				</g>
			</g>
		</g>
		<g>
			<g>
				<g>
					<rect x="82.3" y="379.6" class="st15" width="77.1" height="6.5"/>
				</g>
			</g>
		</g>
		<g>
			<g>
				<g>
					<circle class="st12" cx="107.9" cy="361.7" r="4.1"/>
				</g>
			</g>
		</g>
		<g>
			<g>
				<g>
					<rect x="64.9" y="384.9" class="st2" width="121.5" height="6.7"/>
				</g>
			</g>
		</g>
		<g>
			<g>
				<g>
					<rect x="64.9" y="385.5" class="st2" width="1.9" height="154.5"/>
				</g>
			</g>
		</g>
		<g>
			<g>
				<g>
					<rect x="184.5" y="385.5" class="st2" width="1.9" height="154.5"/>
				</g>
			</g>
		</g>
		<g>
			<defs>
				<path id="SVGID_5_" d="M171.9,399.6h-49.4l4.2-14.6l-10.4-58.5c-0.6-6.6,4.6-12.2,11.2-12.2h39.3c6.6,0,11.8,5.6,11.2,12.2
					l-8.7,60L171.9,399.6z"/>
			</defs>
			<clipPath id="SVGID_6_">
				<use xlink:href="#SVGID_5_"  style="overflow:visible;"/>
			</clipPath>
			<g class="st16">
				<g>
					<g>
						<ellipse class="st11" cx="147.2" cy="319" rx="14.5" ry="14.5"/>
					</g>
				</g>
			</g>
		</g>
	</g>
	<g>
		<g>
			<g>
				<path class="st17" d="M601.7,400.4h62.8v15.1c0,8.2-6.6,14.8-14.8,14.8h-48c-8.2,0-14.8-6.6-14.8-14.8v-0.3
					C586.9,407,593.6,400.4,601.7,400.4z"/>
			</g>
		</g>
	</g>
	<g>
		<g>
			<g>
				<path class="st9" d="M664.5,400.2h-46.9l-5.8-69.4c-0.5-6.2,4.4-11.6,10.6-11.6h37.3c6.2,0,11.1,5.3,10.6,11.6L664.5,400.2z"/>
			</g>
		</g>
	</g>
	<g>
		<g>
			<g>
				<path class="st11" d="M644,323.5h-7.3c-2.3,0-4.1-2.1-4.1-4.6v-9c0-2.5,1.8-4.6,4.1-4.6h7.3c2.3,0,4.1,2.1,4.1,4.6v9
					C648.1,321.4,646.3,323.5,644,323.5z"/>
			</g>
		</g>
	</g>
	<g>
		<defs>
			<path id="SVGID_7_" d="M622.9,305.3c2.9,9.9,11.2,8.4,21.1,5.5c9.9-2.9,15.5-13.3,12.6-23.2c-2.9-9.9-13.3-15.5-23.2-12.6
				C623.6,277.9,620,295.4,622.9,305.3z"/>
		</defs>
		<use xlink:href="#SVGID_7_"  style="overflow:visible;fill:#FCA89E;"/>
		<clipPath id="SVGID_8_">
			<use xlink:href="#SVGID_7_"  style="overflow:visible;"/>
		</clipPath>
		<g class="st18">
			<g>
				<g>
					<path class="st10" d="M643.5,284.2c0,0,0,6.6,0.9,6.6c0.9,0,4.3-1.4,6.8,1.8c2.5,3.2-0.2,6.4-3.2,7.1c-3,0.7-0.9,8.4,6.1,7.1
						c7.1-1.4,9.6-18,5.9-24.3c-3.6-6.4-15.2-13.4-19.3-13c-4.1,0.5-38.8,10.9-38.8,10.9L643.5,284.2z"/>
				</g>
			</g>
		</g>
	</g>
	<g>
		<g>
			<g>
				<polygon class="st9" points="612.9,325.6 590.6,363.8 607.9,371.1 621.7,348.5 				"/>
			</g>
		</g>
	</g>
	<g>
		<g>
			<g>
				<path class="st9" d="M667.6,322.7l29.3,42.3c1.4,2.9,0.3,7.5-2.7,8.5l-42.5,21.2l-5.9-10l28.9-22.5l-22.9-22.9L667.6,322.7z"/>
			</g>
		</g>
	</g>
	<g>
		<defs>
			<path id="SVGID_9_" d="M664.5,400.2h-46.9l-5.8-69.4c-0.5-6.2,4.4-11.6,10.6-11.6h37.3c6.2,0,11.1,5.3,10.6,11.6L664.5,400.2z"/>
		</defs>
		<clipPath id="SVGID_10_">
			<use xlink:href="#SVGID_9_"  style="overflow:visible;"/>
		</clipPath>
		<g class="st19">
			<g>
				<g>
					
						<rect x="640.4" y="375.7" transform="matrix(0.7164 -0.6977 0.6977 0.7164 -75.937 565.6369)" class="st20" width="34.8" height="1"/>
				</g>
			</g>
		</g>
		<g class="st19">
			<g>
				<g>
					
						<rect x="647.4" y="388.7" transform="matrix(0.8851 -0.4654 0.4654 0.8851 -104.9077 353.5651)" class="st20" width="32.2" height="1"/>
				</g>
			</g>
		</g>
	</g>
	<g>
		<g>
			<g>
				<rect x="580" y="394.5" class="st7" width="73.1" height="6.2"/>
			</g>
		</g>
	</g>
	<g>
		<defs>
			<path id="SVGID_11_" d="M664.5,400.2h-46.9l-5.8-69.4c-0.5-6.2,4.4-11.6,10.6-11.6h37.3c6.2,0,11.1,5.3,10.6,11.6L664.5,400.2z"
				/>
		</defs>
		<clipPath id="SVGID_12_">
			<use xlink:href="#SVGID_11_"  style="overflow:visible;"/>
		</clipPath>
		<g class="st21">
			<g>
				<g>
					<circle class="st11" cx="640.9" cy="322.6" r="15.4"/>
				</g>
			</g>
		</g>
	</g>
	<g>
		<g>
			<g>
				<path class="st12" d="M652.5,394.6h-18.7l-1.4-8.2h14.1c2.6,0,4.9,1.9,5.3,4.5L652.5,394.6z"/>
			</g>
		</g>
	</g>
	<g>
		<g>
			<g>
				<polygon class="st7" points="638.8,394.7 580.1,394.7 572,358.4 630.8,358.4 				"/>
			</g>
		</g>
	</g>
	<g>
		<g>
			<g>
				<circle class="st22" cx="604.3" cy="377.5" r="3.9"/>
			</g>
		</g>
	</g>
	<g>
		<g>
			<g>
				<path class="st12" d="M623.8,412l-7.7,86.1h11.4c0,0,18.2-56.1,20-74.3c1.8-18.2-11.4-15-11.4-15L623.8,412z"/>
			</g>
		</g>
	</g>
	<g>
		<defs>
			<path id="SVGID_13_" d="M619.8,373.5H161.6c-7.6,0-13.7-6.1-13.7-13.7V82.3c0-7.6,6.1-13.7,13.7-13.7h458.2
				c7.6,0,13.7,6.1,13.7,13.7v277.5C633.5,367.4,627.4,373.5,619.8,373.5z"/>
		</defs>
		<clipPath id="SVGID_14_">
			<use xlink:href="#SVGID_13_"  style="overflow:visible;"/>
		</clipPath>
		<g class="st23">
			<g>
				<path class="st9" d="M456.3,536.1H341.5c-52.8,0-95.7-42.8-95.7-95.7v-54.2c0-52.8,42.8-95.7,95.7-95.7h114.8
					c52.8,0,95.7,42.8,95.7,95.7v54.2C552,493.3,509.1,536.1,456.3,536.1z"/>
			</g>
		</g>
		<g class="st23">
			<g>
				<path class="st11" d="M441.2,291.8c0,0-6,26.7-40.3,24.7c-34.4-2-39.9-26.3-39.9-26.3l1.2-47.9h76.5L441.2,291.8z"/>
			</g>
		</g>
		<g class="st23">
			<g>
				<g>
					<path class="st12" d="M372.7,263.9c35.8,28.7,59.8,8.4,84.3-30.3c29.2-46,29.4-91.5-6.5-120.2c-35.8-28.7-88.1-22.9-116.8,13
						C305.2,162.2,336.9,235.3,372.7,263.9z"/>
				</g>
			</g>
		</g>
		<g class="st23">
			<g>
				<polygon class="st7" points="383,176.5 443.7,211.6 383,246.6 				"/>
			</g>
		</g>
		<g class="st23">
			<g>
				<g>
					<path class="st24" d="M569.4,217.4l-1.7-0.2l7.8-74.6c2.7-25.9,2.3-45.4-27.5-61.1l0.8-1.5c30.7,16.2,31.1,37.1,28.4,62.8
						L569.4,217.4z"/>
				</g>
			</g>
			<g>
				<g>
					<polygon class="st1" points="496.7,79.3 290.3,74.9 320.3,159.7 478,159.5 					"/>
				</g>
			</g>
			<g>
				<g>
					<polygon class="st9" points="398.1,137.8 250.5,79.4 403.5,10.9 551.9,81 					"/>
				</g>
			</g>
			<g>
				<g>
					<polygon class="st24" points="554.8,237.5 569.9,210.8 579.9,239.8 					"/>
				</g>
			</g>
		</g>
	</g>
	<g>
		<g>
			<ellipse class="st10" cx="655.7" cy="267.3" rx="15.5" ry="14.1"/>
		</g>
	</g>
	<g>
		<g>
			<g>
				<g>
					<path class="st12" d="M587.9,412l-7.7,86.1h11.4c0,0,18.2-56.1,20-74.3c1.8-18.2-11.4-15-11.4-15L587.9,412z"/>
				</g>
			</g>
		</g>
		<g>
			<g>
				<g>
					<path class="st9" d="M616.1,498.1h11.1v8.5h-22.6c-1.5,0-2-3.4-0.7-4.1L616.1,498.1z"/>
				</g>
			</g>
		</g>
		<g>
			<g>
				<g>
					<path class="st9" d="M580.6,498.1h11.1v8.5h-22.6c-1.5,0-2-3.4-0.7-4.1L580.6,498.1z"/>
				</g>
			</g>
		</g>
		<g>
			<g>
				<g>
					<path class="st25" d="M516.4,431.6h-61.2l1.6,130.7h11.7c0,0,8.8-65.7,12.2-102.1h8.1l8.2,47.8l34,36.5l8.9-7.8l-25.8-39.5
						c0,0,2.3-48.7,2.2-57.1C516.6,438.5,516.4,431.6,516.4,431.6z"/>
				</g>
			</g>
		</g>
		<g>
			<g>
				<g>
					<path class="st8" d="M516.4,431.6h-61.2l-7.6-81.2c-0.7-6.6,5.7-12.3,13.9-12.3h48.7c8.1,0,14.5,5.7,13.9,12.3L516.4,431.6z"/>
				</g>
			</g>
		</g>
		<g>
			<g>
				<g>
					<path class="st11" d="M485.5,346.6c10.8,0,10.8-7.4,10.8-9.1v-12c0-2.7-4-2.5-6.5-2.5H482c-2.4,0-6.5,2.2-6.5,4.9v9.6
						C475.6,339.2,476.7,346.6,485.5,346.6z"/>
				</g>
			</g>
		</g>
		<g>
			<defs>
				<path id="SVGID_15_" d="M468.8,323c3.1,10.5,11.9,8.9,22.5,5.8c10.5-3.1,16.6-14.2,13.4-24.7c-3.1-10.5-14.2-16.6-24.7-13.4
					C469.5,293.8,465.7,312.5,468.8,323z"/>
			</defs>
			<use xlink:href="#SVGID_15_"  style="overflow:visible;fill:#FCA89E;"/>
			<clipPath id="SVGID_16_">
				<use xlink:href="#SVGID_15_"  style="overflow:visible;"/>
			</clipPath>
		</g>
		<g>
			<g>
				<g>
					<path class="st8" d="M519,340.7c0,0,28.3,30.2,38.3,39.7c5.5,5.2,0,9.2-3.1,13.1c-8.7,10.9-37,30.4-37,30.4l1.6-16.5l17-19.9
						c0,0-24-18.5-24.8-19.8c-2.2-3.6-0.4-19.6-0.4-19.6L519,340.7z"/>
				</g>
			</g>
		</g>
		<g>
			<g>
				<g>
					<path class="st8" d="M452.4,340.7c0,0-28.3,30.2-38.3,39.7c-5.5,5.2,0,9.2,3.1,13.1c8.7,10.9,41.3,31.1,41.3,31.1l-0.6-17.5
						l-22.4-19.6c0,0,24-18.5,24.8-19.8c2.2-3.6,0.4-19.6,0.4-19.6L452.4,340.7z"/>
				</g>
			</g>
		</g>
		<g>
			<g>
				<g>
					<path class="st24" d="M456.7,562.1h11.9v9.1h-24.1c-1.6,0-2.1-3.6-0.7-4.3L456.7,562.1z"/>
				</g>
			</g>
		</g>
		<g>
			<g>
				<g>
					<path class="st24" d="M531,544.4l8.9-7.8l6,6.8l-18.1,15.9c-1.2,1-4-1.3-3.4-2.8L531,544.4z"/>
				</g>
			</g>
		</g>
		<g>
			<g>
				<g>
					<path class="st26" d="M475.2,284.2c4.7-3.8,9.2,2.4,14.4,4.2c5.2,1.8,14.3-3,19.3,2.2c5,5.2-1,14.7-1.3,18.3
						c-0.3,3.7,2.4,12.2-0.8,17.3c-2.9,4.6-10.1,7.2-18.1,3.4c-5.2-2.5,1.3-10.7,2.4-15.2c1-4.5,0.3-10-6-5.4
						c-2.8,2.1-7.9,4.4-7.5-2.6C478.1,297.6,464.8,292.6,475.2,284.2z"/>
				</g>
			</g>
		</g>
	</g>
	<g>
		<g>
			<g>
				<path class="st17" d="M655,402.8l-58.4,0.3c0,0-6.9,2-8.9,7.9c-2,5.9-6.6,33.8-6.6,33.8h64l4.3-21L655,402.8z"/>
			</g>
		</g>
	</g>
</g>
</svg>
