<?xml version="1.0" encoding="utf-8"?>
<!-- Generator: Adobe Illustrator 20.1.0, SVG Export Plug-In . SVG Version: 6.00 Build 0)  -->
<svg version="1.1" id="Слой_1" xmlns="http://www.w3.org/2000/svg" xmlns:xlink="http://www.w3.org/1999/xlink" x="0px" y="0px"
	 viewBox="0 0 800 600" style="enable-background:new 0 0 800 600;" xml:space="preserve">
<style type="text/css">
	.st0{fill:#5FA69B;}
	.st1{fill:#98BDD0;}
	.st2{fill:#7F9BAB;}
	.st3{fill:#707070;}
	.st4{fill:#5E5F5F;}
	.st5{fill:#525353;}
	.st6{fill:#E9C6B2;}
	.st7{fill:#AECEDF;}
	.st8{fill:#4E4E4E;}
	.st9{opacity:0.47;fill:#7F9CAC;}
	.st10{fill:#CAD9E2;}
	.st11{fill:#E3AF98;}
	.st12{fill:#93B9CD;}
	.st13{fill:#514943;}
	.st14{fill:#363636;}
	.st15{fill:#D88B82;}
	.st16{fill:#FFFFFF;}
	.st17{fill:#DD9D8F;}
	.st18{fill:#A2C9DD;}
	.st19{fill:#8EC1DB;}
	.st20{fill:#C1E0E8;}
	.st21{fill:#979797;}
	.st22{fill:#666666;}
	.st23{fill:#CACACA;}
	.st24{fill:#F1F1F1;}
	.st25{fill:#5D534D;}
	.st26{fill:#606161;}
	.st27{fill:#686969;}
	.st28{fill:none;}
	.st29{fill:#7F2B8A;}
	.st30{font-family:'MazzardL-Black';}
	.st31{font-size:30.6463px;}
	.st32{fill:#D77985;}
	.st33{fill:#C16D63;}
	.st34{fill:#AD625A;}
	.st35{fill:#D25B69;}
	.st36{fill:#DC8F9E;}
	.st37{fill:#529186;}
	.st38{fill:none;stroke:#FFFFFF;stroke-width:2;stroke-linecap:round;stroke-linejoin:round;stroke-miterlimit:10;}
</style>
<g>
	<path class="st0" d="M180.2,537.4c-110.6,0-118.3-120.4-51.2-169.6c67.2-49.1,74.9-91.4,25.3-130.8c-49.5-39.4-33-130.8,72.7-130.8
		s140.9-23.1,131-58.4c-9.9-35.2,25.7-44,93.8-44s139.1,17.6,115.7,76c-23.4,58.3-11.3,84.2,41.5,113.1
		c52.8,28.9,83.7,110.7,44,174.9c-39.6,64.3,0.8,82.4,18,109.1c17.2,26.7-2.6,61.7-33.4,61.7S180.2,537.4,180.2,537.4z"/>
	<g>
		<g>
			<path class="st1" d="M493.6,520.3c0-0.1,0-0.1,0-0.2c0.1-0.3,0.1-0.6,0.2-0.9c0,0,0-0.1,0-0.1c0.1-0.3,0.1-0.6,0.2-0.9
				c0-0.1,0-0.2,0-0.3c0.1-0.3,0.1-0.7,0.2-1.1c0-0.1,0-0.2,0.1-0.3c0.1-0.4,0.1-0.7,0.2-1.1c0-0.1,0-0.2,0.1-0.3
				c0.1-0.4,0.1-0.7,0.2-1.1c0-0.1,0-0.3,0.1-0.4c0.1-0.4,0.2-0.9,0.2-1.4c0-0.2,0.1-0.3,0.1-0.5c0.1-0.5,0.2-1,0.2-1.5
				c0-0.1,0-0.3,0.1-0.4c0.1-0.4,0.1-0.9,0.2-1.4c0-0.2,0.1-0.4,0.1-0.6c0.1-0.5,0.2-1.1,0.3-1.6c0-0.2,0.1-0.5,0.1-0.7
				c0.1-0.5,0.2-1,0.2-1.6c0-0.2,0.1-0.5,0.1-0.7c0.1-0.5,0.1-1,0.2-1.4c0-0.2,0.1-0.4,0.1-0.7c0.1-0.6,0.2-1.2,0.3-1.9
				c0-0.2,0.1-0.5,0.1-0.7c0.1-0.7,0.2-1.3,0.3-2c0-0.2,0.1-0.4,0.1-0.6c0.1-0.6,0.2-1.1,0.2-1.7c0-0.2,0.1-0.5,0.1-0.7
				c0.1-0.7,0.2-1.4,0.3-2.1c0-0.3,0.1-0.5,0.1-0.8c0.1-0.7,0.2-1.4,0.3-2.2c0-0.2,0.1-0.4,0.1-0.6c0.1-0.6,0.2-1.3,0.2-1.9
				c0-0.2,0.1-0.4,0.1-0.7c0,0,0-0.1,0-0.1c0,0,0,0,0,0c5.3-43,8.5-106.8-18.3-101.6c-16.1,3.1-18,34.4-22.8,59.4
				c-5.4,28.4-13.1,58.2-12.7,60.3c0.3,1.8-52.3-3-78.5-2.9c0,0,0,0,0,0c-0.7,0-1.5,0-2.1,0c-0.1-1.6-0.3-2.7-0.5-2.7
				c-0.8,0.1-13.6,0.3-14.6,1.3c-1.9,1.9-2.2,31.3-0.6,32c1.6,0.7,15.7,2.2,15.6,1.1c0-0.1,0-0.4,0-0.8c2.5,0.3,5.5,0.7,8.9,1
				c4.8,0.5,10.5,0.9,16.5,1.4c1.5,0.1,3.1,0.2,4.6,0.3c3.9,0.3,8,0.5,12.1,0.8c4.1,0.2,8.3,0.5,12.4,0.7c23,1.2,44.9,2,50.1,1.9
				c4.9-0.1,9.3-0.6,13-2c1.4-0.6,2.8-1.2,4-2.1c0.7-0.5,1.4-1.1,2.1-1.7c1.1-1.1,2-2.3,2.8-3.7c1-1.7,1.7-3.8,2.3-6.1
				c0-0.2,0.1-0.4,0.1-0.6c0,0,0-0.1,0-0.1C493.5,520.8,493.6,520.5,493.6,520.3z"/>
			<path class="st2" d="M471.8,411.3c0,0-4.6,100.3-7.8,107.8c-3.2,7.5-101.1,1.1-101.1,1.1s-0.2,7.2-0.1,12.4
				c1.1,0,1.8-0.1,1.8-0.4c0-0.1,0-0.4,0-0.8c2.5,0.3,5.5,0.7,8.9,1c4.8,0.5,10.5,0.9,16.5,1.4c1.5,0.1,3.1,0.2,4.6,0.3
				c3.9,0.3,8,0.5,12.1,0.8c4.1,0.2,8.3,0.5,12.4,0.7c23,1.2,44.9,2,50.1,1.9c4.9-0.1,9.3-0.6,13-2c1.4-0.6,2.8-1.2,4-2.1
				c0.7-0.5,1.4-1.1,2.1-1.7c1.1-1.1,2-2.3,2.8-3.7c1-1.7,1.7-3.8,2.3-6.1c0-0.2,0.1-0.4,0.1-0.6c0,0,0-0.1,0-0.1
				c0-0.2,0.1-0.5,0.2-0.7c0-0.1,0-0.1,0-0.2c0.1-0.3,0.1-0.6,0.2-0.9c0,0,0-0.1,0-0.1c0.1-0.3,0.1-0.6,0.2-0.9c0-0.1,0-0.2,0-0.3
				c0.1-0.3,0.1-0.7,0.2-1.1c0-0.1,0-0.2,0.1-0.3c0.1-0.4,0.1-0.7,0.2-1.1c0-0.1,0-0.2,0.1-0.3c0.1-0.4,0.1-0.7,0.2-1.1
				c0-0.1,0-0.3,0.1-0.4c0.1-0.4,0.2-0.9,0.2-1.4c0-0.2,0.1-0.3,0.1-0.5c0.1-0.5,0.2-1,0.2-1.5c0-0.1,0-0.3,0.1-0.4
				c0.1-0.4,0.1-0.9,0.2-1.4c0-0.2,0.1-0.4,0.1-0.6c0.1-0.5,0.2-1.1,0.3-1.6c0-0.2,0.1-0.5,0.1-0.7c0.1-0.5,0.2-1,0.2-1.6
				c0,0,0-0.1,0-0.1l5.2-74.7L471.8,411.3z"/>
			<g>
				<g>
					<polygon class="st3" points="257.5,526.7 381.5,537.9 381.8,544.5 257.6,532.8 					"/>
					
						<rect x="381.6" y="537.3" transform="matrix(0.9997 -2.425211e-02 2.425211e-02 0.9997 -12.9925 9.9614)" class="st4" width="45.2" height="6.6"/>
					<path class="st5" d="M257.5,526.7c0,0,58.2-0.6,62-0.1c3.8,0.5,107.3,10.1,107.3,10.1l-45.2,1.1L257.5,526.7z"/>
				</g>
				<g>
					<path class="st6" d="M461,522.4c0,0-19.5-1.3-21.6-1c-2.1,0.3-26.4-12.7-28.3-13.8c-1.9-1.1-23.5,5.6-25.3,6.8
						c-1.8,1.2-1.1,4.1,2.3,3.6c3.4-0.5,15.4-2.9,16.7-3.2c1.2-0.4,12.8,3.5,13.6,4.3c0.8,0.9-11.7-0.5-13.6-0.4
						c-1.9,0.1-18.4,4.6-20.3,5.6c-2,1-2.1,4.9,1.5,5c3.7,0.1,10.1-1.9,10.1-1.9s-5.9,2.2-7.7,2.8s-0.4,4.2,4.1,3.5
						c4.5-0.6,12-2.8,13.5-2.9c1.5-0.1,11.3,1.1,12.4,1.8c1,0.7-7.1,2.3-9.3,2.7c-2.1,0.3-10.9-0.7-11.4,0.8
						c-0.5,1.5,1.6,2.8,4.4,3.4c2.8,0.5,5.3,0.7,7.2,1.2s9-1.3,10-0.9c1,0.3,6.7,2.9,12.4,3.3c5.7,0.4,9.2-1.4,14.5-1.9
						c5.3-0.5,11.1,0.4,11.1,0.4L461,522.4z"/>
					<path class="st7" d="M536.9,349.8c12.8,1.7,44.6,33.8,47,40.8c2.4,7-0.8,136.5-1.2,140c-0.3,3.6-103.5,3.6-107.3,2.8
						c-3.8-0.8-3.6-127.5-3.6-137.7c-0.1-10.2,23.5-37.2,23.5-37.2L536.9,349.8z"/>
					<path class="st8" d="M498.9,416.8c0,0,4.8,15.4,6.2,17.6c1.4,2.2,5.1,1.9,6.3,1.8c1.1,0,6.3-11.2,8.6-18.4
						c2.2-7.1-11.3-18.6-11.3-18.6L498.9,416.8z"/>
					<path class="st9" d="M499,420.8c0,0,0.9,7.2,2.7,8.4c1.8,1.2,7-30,7-30s13.6,30.2,16.3,30.7c2.7,0.6,23.9-61.4,24.5-64
						c0.6-2.7-6.1-13.7-6.1-13.7L511.9,399l-11.7,1.3L499,420.8z"/>
					<path class="st10" d="M536.8,344.7c5.4,0.7,10.8,17.9,10.8,19.2c0,1.3-26.2,64.3-28,64.8c-1.8,0.5-11-29.5-11-29.5
						s-8.4,28-10.7,27c-2.3-1-10.9-50-11.5-56c-0.6-6,5.7-16.8,9.5-19.7C499.7,347.4,536.8,344.7,536.8,344.7z"/>
					<path class="st6" d="M530.3,294.2c0.5,13.7,6.7,60.5,6.7,60.5s-26.7,44.4-28.4,44.5c-1.7,0-13.3-37.9-13.4-40.5
						c-0.1-2.7-5.8-44-5.8-44L530.3,294.2z"/>
					<path class="st11" d="M532.3,316.7c-1-9.3-1.9-17.9-2.1-22.6l-40.8,20.4c0,0,3.6,26.2,5.2,38.2
						C504.1,349.6,522.2,340.4,532.3,316.7z"/>
					<path class="st8" d="M505.1,434.3c0,0-7.9,77.1-7.3,82.8c0.6,5.7,11,22.5,11,22.5s7.8-15,9.5-19.1c1.7-4-4.5-85.4-6.8-90.2
						C509.1,425.6,505.1,434.3,505.1,434.3z"/>
					<path class="st12" d="M557.9,429c-4.9,16.5-2.5,81.2-2.5,81.2l-68.2,8.4l78.1,14.2l12.7-45.9L557.9,429z"/>
					<g>
						<path class="st6" d="M431.2,250.2c0,0,7.8,23.7,11,42.2c3.2,18.5,22,40.1,36.2,46.3c14.2,6.2,25.5,2.9,35.8-4.5
							c10.3-7.5,13.8-11.1,16.3-16.9c2.5-5.8,4.3-16.9,4.3-16.9s14.6-2.8,17.5-19c2.9-16.2-3.3-22.7-16.8-14.2
							c0,0,2.6-25.2,3.9-33.6c1.3-8.4-22.1-18.9-48.5-18.2C471.9,215.9,423.7,224,431.2,250.2z"/>
						<path class="st11" d="M523.1,249c13.2-12.9,11-21.3,7.8-25.5c-1.8-1-3.8-1.9-6.1-2.8c-13.1,2-77.3,12.2-77.3,12.2
							s-10.8,8.1-17.1,13c0.1,1.3,0.3,2.7,0.7,4.2c0,0,3.1,9.5,6.2,21.1c8-1.8,17.6-4.7,23.1-8.7c0,0-5.9,4.3-4.4,5.2
							C457.8,268.6,503.2,268.4,523.1,249z"/>
						<path class="st13" d="M438.9,266.1c11.8-3.4,41-12.6,58.5-25.7c0,0-13.7,14.7-31.6,20.9c0,0,42.4,0.4,56.8-21.6
							c0,0,1.1,31.4,6.5,53.1c0,0-0.1-7.7,1.9-15.3c1.5-5.9,5.5-10.8,11-13.4l0,0l5.7-0.4c0,0,13.4-28.3,4.1-43.3
							c0,0-10.9-29.3-54.6-28.5c-43.7,0.9-65.6,20-70.2,40.2c-4.6,20.2-8.1,23.9-13.6,28.8c0,0,2.4,3.7,9.8,5.6
							C428.2,267.8,433.7,267.6,438.9,266.1z"/>
						
							<ellipse transform="matrix(0.996 -8.944880e-02 8.944880e-02 0.996 -23.6303 42.0947)" class="st14" cx="457.8" cy="284.7" rx="5.4" ry="8.9"/>
						
							<ellipse transform="matrix(0.996 -8.944890e-02 8.944890e-02 0.996 -22.9072 45.9101)" class="st14" cx="500.8" cy="278.5" rx="5.4" ry="8.9"/>
						<path class="st11" d="M479.5,292.6c0,0-2,9-4.1,11.7c-2.1,2.7,1.2,5.2,8.4,5.8c0,0-3.8-2-5.1-4.1
							C477.4,303.9,479.8,301.7,479.5,292.6z"/>
						<path class="st15" d="M471.6,320.8c0,0,16.5-0.1,33.1-5.8c0,0-3.2,14.8-16.2,16.2C475.4,332.5,471.6,320.8,471.6,320.8z"/>
						<path class="st16" d="M497.5,320.9c5.5-2,5-2.3,4.7-5.1c-12.9,4-25.2,4.8-29.2,5c0.5,1.4,1.3,3.2,2.3,3.5
							C476.9,324.8,491.6,323.1,497.5,320.9z"/>
						
							<ellipse transform="matrix(0.9997 -2.637543e-02 2.637543e-02 0.9997 -7.2657 12.2139)" class="st16" cx="459.4" cy="281.5" rx="1.9" ry="2.5"/>
						
							<ellipse transform="matrix(0.9997 -2.633541e-02 2.633541e-02 0.9997 -7.0822 13.3295)" class="st16" cx="502.5" cy="275.5" rx="1.9" ry="2.5"/>
						
							<ellipse transform="matrix(0.9878 -0.1559 0.1559 0.9878 -36.6803 73.6581)" class="st13" cx="451.1" cy="270.6" rx="5.4" ry="3.1"/>
						
							<ellipse transform="matrix(0.9997 -2.636863e-02 2.636863e-02 0.9997 -6.7628 13.3147)" class="st13" cx="501.5" cy="263.1" rx="5.4" ry="3.1"/>
						
							<ellipse transform="matrix(0.9878 -0.1559 0.1559 0.9878 -41.7479 75.2722)" class="st17" cx="458.9" cy="303.7" rx="6.9" ry="4"/>
						
							<ellipse transform="matrix(0.996 -8.944873e-02 8.944873e-02 0.996 -24.4478 46.4568)" class="st17" cx="506.1" cy="296" rx="6.9" ry="4"/>
					</g>
					<path class="st11" d="M536.7,352.1c-2.6,4-24.4,37.7-25.4,37.4c-1.1-0.3-15-26.8-16.3-34.2l0,0c0.2,1.8,0.3,3,0.4,3.3
						c0.1,2.7,11.7,40.6,13.4,40.5c1.7,0,28.4-44.5,28.4-44.5S536.9,353.7,536.7,352.1z"/>
					<g>
						<path class="st18" d="M577.2,388.1c-15.9,4-20.7,36.4-20,63c0.7,26.6,3.4,60.2,3.9,62.4c0.5,2.2-87.3-0.8-103.6,2.7
							c0,0,1,25.7,2.7,29.6c1.7,3.9,100.5,4,112.4,3.2c11.9-0.8,21.2-4.1,23.5-17.5C598.4,518.3,615.1,378.7,577.2,388.1z"/>
						<path class="st19" d="M572.6,549.1c11.9-0.8,21.2-4.1,23.5-17.5c0.7-4,2.7-19.2,4.1-38.4c-2.9,32-11.7,42.8-15.9,42
							c-4.2-0.8-6.7-3.1-6.7-3.1s6.7,10.5-7.5,11.3c-14.2,0.8-99.7,1.2-99.5-2.1c0.1-2.8-1.4-20.9-1.8-26.2c-4.2,0.2-7.7,0.5-10.1,1
							l0.7,25.2c0.3,2.2,0.6,3.9,0.9,4.7C461.9,549.8,560.7,549.8,572.6,549.1z"/>
						<path class="st20" d="M451.4,514.4c1-1.1,13.7-1.9,14.6-2c0.8-0.2,1.4,15.9,1.4,15.9l-5.8,1l5.9,1.3c0,0,0.3,16.4,0.5,17.6
							c0.2,1.2-14,0.2-15.6-0.4C450.6,547.2,449.6,516.5,451.4,514.4z"/>
					</g>
					<path class="st19" d="M572.6,549.1c11.9-0.8,21.2-4.1,23.5-17.5c0.7-4,2.7-19.2,4.1-38.4c-2.9,32-11.7,42.8-15.9,42
						c-4.2-0.8-6.7-3.1-6.7-3.1s6.7,10.5-7.5,11.3c-14.2,0.8-99.7,1.2-99.5-2.1c0.1-2.8-1.4-20.9-1.8-26.2c-4.2,0.2-7.7,0.5-10.1,1
						l0.7,25.2c0.3,2.2,0.6,3.9,0.9,4.7C461.9,549.8,560.7,549.8,572.6,549.1z"/>
					<path class="st11" d="M461,522.4c0,0-7.1-0.5-13.2-0.8c0.2,3.2,0.4,9.1,0.2,12.7c-0.2,5.1-9.8,7.1-16.9,5.7
						c-7.1-1.4-10-4.1-15.9-1.7c-5.9,2.4-16.7-0.2-16.7-0.2l0,0c0.8,0.6,2.1,1.1,3.6,1.4c2.8,0.5,5.3,0.7,7.2,1.2s9-1.3,10-0.9
						c1,0.3,6.7,2.9,12.4,3.3c5.7,0.4,9.2-1.4,14.5-1.9c5.3-0.5,11.1,0.4,11.1,0.4L461,522.4z"/>
					<path class="st20" d="M451.4,514.4c1-1.1,13.7-1.9,14.6-2c0.8-0.2,1.4,15.9,1.4,15.9l-5.8,1l5.9,1.3c0,0,0.3,16.4,0.5,17.6
						c0.2,1.2-14,0.2-15.6-0.4C450.6,547.2,449.6,516.5,451.4,514.4z"/>
					<g>
						<g>
							<path class="st21" d="M493.9,339.5l-0.4-2.6c0.2,0,18.9-2.8,31-14.6c12.1-11.8,14.5-30.6,14.5-30.8l1.3,0.1l1.2-0.6
								c0.5,1-1.2,8.1-2.7,12.3c-2,5.9-5.8,14.4-12.5,20.9C513.7,336.6,494.7,339.4,493.9,339.5z"/>
						</g>
						<path class="st22" d="M498.3,343.1l-11.7,2.3c-2.9,0.6-5.8-1.4-6.4-4.3l0,0c-0.6-2.9,1.4-5.8,4.3-6.4l11.7-2.3
							c2.9-0.6,5.8,1.4,6.4,4.3l0,0C503.2,339.7,501.2,342.5,498.3,343.1z"/>
						<path class="st3" d="M496.2,332.4l-11.7,2.3c-2.9,0.6-4.9,3.4-4.3,6.4c0.1,0.5,0.3,1.1,0.5,1.5c1.1,0.5,2.3,0.8,3.5,0.5
							l11.7-2.3c2.9-0.6,4.9-3.4,4.3-6.4c-0.1-0.5-0.3-1.1-0.5-1.5C498.7,332.4,497.5,332.2,496.2,332.4z"/>
					</g>
					<g>
						<path class="st23" d="M462,197.4c0,0,39.6-11.2,60.4,14.2s18.7,69.5,18.7,69.5l7.4-2.7l-3-30.4l-17.6-40.7
							C527.8,207.2,499.7,182.4,462,197.4z"/>
						<path class="st16" d="M462,197.4c0,0,77.2-27.8,80.9,70.8l5.9,2.4c0,0-0.4-78.7-56.8-78C492.1,192.7,472.1,192.1,462,197.4z"
							/>
					</g>
					<g>
						
							<ellipse transform="matrix(0.1712 -0.9852 0.9852 0.1712 176.1624 771.9269)" class="st23" cx="546.9" cy="281.3" rx="19.9" ry="12.8"/>
						<path class="st24" d="M550.3,261.6c-2-0.3-4,0-5.8,1c-3.4,3.1-6.1,8.2-7.2,14.3c-1.9,10.8,2.2,20.6,9.2,21.8c2,0.3,4,0,5.8-1
							c3.4-3.1,6.1-8.2,7.2-14.3C561.4,272.6,557.3,262.8,550.3,261.6z"/>
						
							<ellipse transform="matrix(7.334545e-02 -0.9973 0.9973 7.334545e-02 231.0972 809.0159)" class="st23" cx="550.9" cy="280.1" rx="12" ry="7.6"/>
						
							<ellipse transform="matrix(7.333024e-02 -0.9973 0.9973 7.333024e-02 232.1793 810.1173)" class="st16" cx="552" cy="280.1" rx="8.4" ry="5.3"/>
					</g>
					<path class="st25" d="M451.1,207.8c0,0-12.2,7-15.8,20.6c-3.6,13.6-11.5,26.9-11.5,26.9s11.6-1.6,26.6-13.8l-4.5,10.3
						c0,0,17.7-4.6,35.8-24.3l-5.7,15.8c0,0,19.3-6,28.5-11.3c0,0-3,12.6-10.6,18.3c0,0,22.4-8.8,30.5-20.1c0,0-9.8,5.7-16.4,8
						l9.9-18.4c0,0-22.5,11-30.6,12.7l5.6-18.2l-35.3,25.1l5.1-14.8l-26,18.4C436.7,243,437.9,222.3,451.1,207.8z"/>
					<path class="st19" d="M582.4,387.8L582.4,387.8c10.3,4.8,13.2,24.4,14.9,37.7c1.7,13.2,0.9,10.2-1.1,10
						c-2-0.2-14.7-1.2-14.7-1.2l14.1,4.3l-22.9,5.9c0,0,22.9-5.7,24.1-0.6c1,4,3.2,31.6,3.4,47.9C603.3,450,603.5,390.6,582.4,387.8
						z"/>
				</g>
				<g>
					<polygon class="st3" points="162.2,385.6 373.4,390.9 377.4,544.7 165.7,531 					"/>
					<path class="st26" d="M373.4,390.9c0,0,5.7,1.3,6.3,1.6c0.6,0.3,3.7,152.1,3.7,152.1l-6,0.1L373.4,390.9z"/>
					<path class="st27" d="M377.4,544.7l-4-153.9l-25.5-0.6h0c39.1,8.2,36.7,137.7-66.4,139.1s-116.3-23-117.2-56.5l1.4,58.1
						L377.4,544.7z"/>
				</g>
			</g>
			<g>
				<path class="st16" d="M277.1,472.1c-1.6,0.7-2.4,3.6-1.7,5.7c0.5,1.6-4.3,6.7-12.7,5c-5.4-1.1-10.1-4.6-12.7-9.5
					c-3.9-7.6-0.4-13.6,1.3-13.6c2.2,0.1,4.8-1.5,5-3.2c0.2-1.7-7.1-6.9-8.6-7.3c-1.5-0.3-4,5.2-4,5.2c-9,18.8,8,29.6,8,29.6
					s15,13.4,30.7-0.4c0,0,4.7-3.9,4-5.2C285.7,477,278.7,471.4,277.1,472.1z"/>
				<g>
					<g>
						<path class="st16" d="M252.2,448.2l-1.2-1.9c0.2-0.1,4.4-2.7,9.2,0.7c4.8,3.4,3.6,8.2,3.6,8.4l-2.2-0.6c0-0.1,0.8-3.5-2.7-5.9
							C255.4,446.3,252.4,448.1,252.2,448.2z"/>
					</g>
					<g>
						<path class="st16" d="M250.6,443.3l-1.2-2c0.3-0.2,6.3-3.6,13.6,1.5c7.4,5.2,5.9,12,5.9,12.2l-2.2-0.5c0-0.2,1.1-5.6-4.9-9.9
							C255.6,440.4,250.7,443.3,250.6,443.3z"/>
					</g>
					<g>
						<path class="st16" d="M249.2,438.2l-1.1-2c0.3-0.2,7.8-3.9,17.6,3c9.8,6.9,8.6,15.1,8.5,15.5l-2.2-0.4c0-0.3,1-7.1-7.6-13.2
							C255.8,434.9,249.5,438.1,249.2,438.2z"/>
					</g>
				</g>
			</g>
		</g>
		<g>
			<path class="st28" d="M439.8,114.8H306.9c-10.6,0-19.3,8.7-19.3,19.3v62.8c0,10.6,8.7,19.3,19.3,19.3h77.8
				c0,0-0.9,35.3,45.2,32.5c0,0-16.3-12.1-12.9-32.5h22.7c10.6,0,19.3-8.7,19.3-19.3v-62.8C459.2,123.5,450.5,114.8,439.8,114.8z"/>
			<text transform="matrix(1 0 0 1 298.1259 136.2852)"><tspan x="0" y="0" class="st29 st30 st31">Biz bilan</tspan><tspan x="-10.5" y="36.8" class="st29 st30 st31">bog’laning!</tspan></text>
		</g>
		<g>
			<path class="st16" d="M217.2,340.4c-0.3-0.9-0.7-1.8-1.1-2.7l2.1-3.9l-3.3-3.3l-3.3-3.3l-3.9,2.1c-0.9-0.4-1.8-0.8-2.7-1.1
				l-1.3-4.2h-4.7h-4.7l-1.3,4.2c-0.9,0.3-1.8,0.7-2.7,1.1l-3.9-2.1l-3.3,3.3l-3.3,3.3l2.1,3.9c-0.4,0.9-0.8,1.8-1.1,2.7l-4.2,1.3
				v4.7v4.7l4.2,1.3c0.3,0.9,0.7,1.8,1.1,2.7l-2.1,3.9l3.3,3.3l3.3,3.3l3.9-2.1c0.9,0.4,1.8,0.8,2.7,1.1l1.3,4.2h4.7h4.7l1.3-4.2
				c0.9-0.3,1.8-0.7,2.7-1.1l3.9,2.1l3.3-3.3l3.3-3.3l-2.1-3.9c0.4-0.9,0.8-1.8,1.1-2.7l4.2-1.3v-4.7v-4.7L217.2,340.4z
				 M198.9,355.4c-5,0-9.1-4.1-9.1-9.1s4.1-9.1,9.1-9.1c5,0,9.1,4.1,9.1,9.1S203.9,355.4,198.9,355.4z"/>
			<path class="st16" d="M246,322.4c-0.2-0.7-0.5-1.3-0.8-2l1.5-2.8l-2.4-2.4l-2.4-2.4l-2.8,1.5c-0.6-0.3-1.3-0.6-2-0.8l-0.9-3.1
				h-3.5h-3.5l-0.9,3.1c-0.7,0.2-1.3,0.5-2,0.8l-2.8-1.5l-2.4,2.4l-2.4,2.4l1.5,2.8c-0.3,0.6-0.6,1.3-0.8,2l-3.1,0.9v3.5v3.5
				l3.1,0.9c0.2,0.7,0.5,1.3,0.8,2l-1.5,2.8l2.4,2.4l2.4,2.4l2.8-1.5c0.6,0.3,1.3,0.6,2,0.8l0.9,3.1h3.5h3.5l0.9-3.1
				c0.7-0.2,1.3-0.5,2-0.8l2.8,1.5l2.4-2.4l2.4-2.4l-1.5-2.8c0.3-0.6,0.6-1.3,0.8-2l3.1-0.9v-3.5v-3.5L246,322.4z M232.6,333.4
				c-3.7,0-6.6-3-6.6-6.6c0-3.7,3-6.6,6.6-6.6c3.7,0,6.6,3,6.6,6.6C239.3,330.4,236.3,333.4,232.6,333.4z"/>
			<circle class="st16" cx="207.3" cy="335.1" r="2.4"/>
		</g>
		<g>
			<g>
				<g>
					<path class="st16" d="M484.4,138.5c0,1.1-0.9,2-2,2h-13c0,0,0,0,0,0h0c-0.6,0-1.1-0.2-1.5-0.7c-0.8-0.8-0.7-2.1,0.1-2.9
						l10.9-9.8c1.1-1,1.5-2.2,1.5-3.5c0-1.2-0.4-2.3-1.2-3.2c-1-1.1-2.2-1.5-3.5-1.5c-1.1,0-2.3,0.4-3.2,1.2l-1.1,1
						c-0.8,0.8-2.1,0.7-2.9-0.1c-0.7-0.8-0.7-2.1,0.1-2.9l1.1-1c1.7-1.5,3.8-2.3,5.9-2.3c2.4,0,4.8,1,6.5,2.9
						c1.5,1.7,2.3,3.8,2.3,5.9c0,2.4-1,4.8-2.9,6.5l-6.9,6.3h7.8C483.5,136.5,484.4,137.4,484.4,138.5z"/>
					<path class="st16" d="M508,133.7c0,1.1-0.9,2-2.1,2h-0.4v2.8c0,1.1-0.9,2-2,2s-2-0.9-2-2v-2.8h-11.5h0h0
						c-0.4,0-0.9-0.1-1.2-0.4c-0.9-0.7-1-1.9-0.3-2.8l13.6-16.9c0,0,0,0,0.1-0.1c0,0,0.1-0.1,0.1-0.1c0.1,0,0.1-0.1,0.2-0.1
						c0,0,0.1-0.1,0.1-0.1c0.1,0,0.1-0.1,0.2-0.1c0-0.1,0.1-0.1,0.1-0.1c0,0,0.1,0,0.2-0.1c0,0,0.1,0,0.1,0c0.1,0,0.2,0,0.3,0
						c0,0,0,0,0.1,0s0,0,0.1,0c0.1,0,0.2,0,0.2,0c0.1,0,0.1,0,0.2,0c0,0,0.1,0,0.2,0.1c0,0,0.1,0,0.1,0c0.1,0.1,0.1,0.1,0.2,0.1
						c0.1,0,0.1,0.1,0.2,0.1c0,0,0,0,0,0c0,0,0.1,0,0.1,0.1c0.1,0.1,0.1,0.1,0.1,0.1c0,0,0.1,0.1,0.1,0.1c0,0,0.1,0.1,0.1,0.2
						c0,0,0,0.1,0.1,0.1c0,0.1,0,0.1,0.1,0.2c0,0,0,0.1,0,0.1c0,0.1,0,0.1,0,0.2c0,0.1,0,0.1,0,0.2c0,0,0,0.1,0,0.1v14.8h0.4
						C507.1,131.7,508,132.6,508,133.7z M501.5,122.6l-7.3,9.1h7.3V122.6z"/>
				</g>
				<g>
					<path class="st16" d="M467.7,153.4v-6.7c0-0.4,0.3-0.6,0.6-0.6c0.4,0,0.6,0.3,0.6,0.6v2.7h2.9v-2.7c0-0.4,0.3-0.6,0.6-0.6
						c0.4,0,0.6,0.3,0.6,0.6v6.7c0,0.4-0.3,0.6-0.6,0.6c-0.4,0-0.6-0.3-0.6-0.6v-2.7h-2.9v2.7c0,0.4-0.3,0.6-0.6,0.6
						C467.9,154,467.7,153.7,467.7,153.4z"/>
					<path class="st16" d="M481.7,147c0.7,0.7,1.1,1.7,1.1,2.9c0,1.1-0.4,2.1-1.1,2.9c-0.7,0.7-1.7,1.2-2.7,1.2
						c-1.1,0-2.1-0.5-2.8-1.2c-0.7-0.7-1.1-1.7-1.1-2.9c0-1.1,0.4-2.1,1.1-2.9c0.7-0.8,1.7-1.2,2.8-1.2
						C480,145.8,481,146.3,481.7,147z M481.5,149.9c0-0.8-0.3-1.5-0.8-2c-0.5-0.5-1.1-0.8-1.8-0.8c-0.7,0-1.4,0.3-1.8,0.8
						c-0.5,0.5-0.8,1.2-0.8,2c0,0.8,0.3,1.5,0.8,2c0.5,0.5,1.1,0.8,1.8,0.8c0.7,0,1.3-0.3,1.8-0.8
						C481.2,151.4,481.5,150.7,481.5,149.9z"/>
					<path class="st16" d="M487.8,154c-1.8,0-3.3-1.5-3.3-3.3v-4c0-0.4,0.3-0.6,0.6-0.6c0.3,0,0.6,0.3,0.6,0.6v4c0,1.1,0.9,2,2,2
						c1.1,0,2-0.9,2-2v-4c0-0.4,0.3-0.6,0.6-0.6c0.4,0,0.6,0.3,0.6,0.6v4C491.1,152.5,489.6,154,487.8,154z"/>
					<path class="st16" d="M498.8,153c0.1,0.3-0.1,0.7-0.4,0.8c0,0-0.1,0-0.3,0c0,0,0,0,0,0c-0.1,0-0.3,0-0.4-0.1
						c-0.1-0.1-0.3-0.2-0.4-0.4c-0.2-0.3-0.2-0.7-0.2-1.4c0-0.2-0.1-0.4-0.1-0.5c-0.1-0.1-0.2-0.2-0.3-0.3c-0.2-0.2-0.5-0.3-0.6-0.3
						h-1.3v2.5c0,0.3-0.3,0.6-0.6,0.6c-0.4,0-0.6-0.3-0.6-0.6v-6.7c0-0.4,0.3-0.6,0.6-0.6c0,0,0,0,0,0h2c1.4,0,2.4,1.1,2.4,2.4
						c0,0.7-0.3,1.4-0.9,1.9c0.1,0.1,0.3,0.2,0.4,0.4c0.2,0.3,0.4,0.7,0.4,1.2c0,0.3,0,0.6,0,0.7C498.5,152.7,498.7,152.8,498.8,153
						z M497.2,148.5c0-0.7-0.5-1.2-1.2-1.2h-1.4v2.3h1.4C496.6,149.6,497.2,149.1,497.2,148.5z"/>
					<path class="st16" d="M500.3,152c0.2-0.2,0.6-0.3,0.8-0.1c0.5,0.4,1.4,0.9,2.2,0.9c0.6,0,1.1-0.2,1.4-0.4
						c0.3-0.2,0.5-0.5,0.5-0.8c0-0.1,0-0.3-0.1-0.4c-0.1-0.1-0.2-0.2-0.3-0.3c-0.3-0.2-0.9-0.4-1.6-0.5h0c-0.5-0.1-1-0.2-1.5-0.4
						c-0.4-0.2-0.8-0.5-1.1-0.9c-0.2-0.3-0.3-0.6-0.3-0.9c0-0.7,0.4-1.3,0.9-1.7c0.5-0.4,1.2-0.6,2-0.6c1.1,0,1.9,0.5,2.5,0.9
						c0.3,0.2,0.3,0.5,0.2,0.8c-0.2,0.3-0.5,0.4-0.8,0.2c-0.6-0.4-1.1-0.7-1.8-0.7c-0.5,0-1,0.2-1.3,0.4c-0.3,0.2-0.4,0.5-0.4,0.7
						c0,0.1,0,0.2,0.1,0.3c0.1,0.1,0.2,0.2,0.3,0.3c0.3,0.2,0.8,0.4,1.4,0.5h0c0.6,0.1,1.1,0.3,1.6,0.5c0.5,0.2,0.9,0.5,1.1,0.9
						c0.2,0.3,0.3,0.6,0.3,1c0,0.7-0.4,1.4-1,1.8c-0.6,0.4-1.3,0.6-2.1,0.6c-1.2,0-2.3-0.6-2.9-1.1
						C500.2,152.6,500.2,152.3,500.3,152z"/>
				</g>
			</g>
			<path class="st16" d="M516.5,111.2l-2.9,2.3c4.8,6,7.3,13.2,7.3,20.9c0,18.4-15,33.4-33.4,33.4c-18.4,0-33.4-15-33.4-33.4
				c0-18,14.4-32.8,32.3-33.3l-0.8,3.7l11.4-3.6l-8.8-8.1l-1,4.3c-20.3,0.2-36.8,16.7-36.8,37c0,20.4,16.6,37,37,37
				c20.4,0,37-16.6,37-37C524.7,126,521.8,117.8,516.5,111.2z"/>
		</g>
		<g>
			<path class="st16" d="M378,328c-3.2-6.6-11.7-11.2-21.5-11.2c-12.7,0-23,7.7-23,17.3c0,4.6,2.4,8.9,6.4,12l-3.3,9.1l12-4.9
				c1.3,0.4,2.7,0.6,4.2,0.8c-0.1-0.8-0.2-1.6-0.2-2.5C352.5,337.4,363.9,328.3,378,328z M347.4,337c-1.8,0-3.3-1.5-3.3-3.3
				c0-1.8,1.5-3.3,3.3-3.3c1.8,0,3.3,1.5,3.3,3.3C350.7,335.5,349.2,337,347.4,337z"/>
			<path class="st16" d="M401.8,348.6c0-9-9.1-16.3-20.8-17.2c-0.7-0.1-1.5-0.1-2.2-0.1c-12.7,0-23,7.7-23,17.3c0,1.4,0.2,2.7,0.6,4
				c2.4,7.6,11.5,13.3,22.3,13.3c2.8,0,5.5-0.4,7.9-1.1l12,4.9l-3.3-9.1C399.3,357.4,401.8,353.2,401.8,348.6z M366.9,352.4
				c-1.8,0-3.3-1.5-3.3-3.3c0-1.8,1.5-3.3,3.3-3.3c1.8,0,3.3,1.5,3.3,3.3C370.2,351,368.7,352.4,366.9,352.4z M378.8,352.4
				c-1.8,0-3.3-1.5-3.3-3.3c0-1.8,1.5-3.3,3.3-3.3s3.3,1.5,3.3,3.3C382.1,351,380.6,352.4,378.8,352.4z M390.7,352.4
				c-1.8,0-3.3-1.5-3.3-3.3c0-1.8,1.5-3.3,3.3-3.3c1.8,0,3.3,1.5,3.3,3.3C394,351,392.5,352.4,390.7,352.4z"/>
		</g>
		<g>
			<path class="st16" d="M288.8,328.4h-24.1c-0.9,0-1.3,1.1-0.6,1.7l24.8,21.9l24.8-21.9c0.7-0.6,0.3-1.7-0.6-1.7H288.8z"/>
			<path class="st16" d="M288.8,355.4l-26.7-23.7v26.5c0,2.4,1.9,4.3,4.3,4.3h22.4h22.4c2.4,0,4.3-1.9,4.3-4.3v-26.5L288.8,355.4z"
				/>
		</g>
	</g>
	<g>
		<rect x="118.1" y="532.9" class="st32" width="499" height="22.6"/>
		<path class="st33" d="M573.4,590.4H152c-12.7,0-23-10.3-23-23v-11.9h467.4v11.9C596.4,580.1,586.1,590.4,573.4,590.4z"/>
		<rect x="129" y="555.5" class="st34" width="467.4" height="6.8"/>
		<rect x="133.2" y="532.9" class="st35" width="25.8" height="22.8"/>
		<rect x="191.9" y="532.9" class="st35" width="62.1" height="22.8"/>
		<rect x="313.7" y="532.9" class="st35" width="28.4" height="22.8"/>
		<rect x="556.5" y="532.9" class="st35" width="14.2" height="22.8"/>
		<rect x="484.7" y="532.9" class="st35" width="10.2" height="22.8"/>
		<rect x="499" y="532.9" class="st35" width="14.2" height="22.8"/>
		<rect x="163.5" y="532.9" class="st36" width="12.9" height="22.6"/>
		<rect x="270.8" y="532.9" class="st36" width="35.9" height="22.6"/>
		<rect x="359.4" y="532.9" class="st36" width="23.9" height="22.6"/>
		<rect x="453.5" y="532.9" class="st36" width="18.3" height="22.6"/>
		<rect x="517" y="532.9" class="st36" width="28.9" height="22.6"/>
		<rect x="389.9" y="532.9" class="st36" width="42.3" height="22.6"/>
		<rect x="180.3" y="532.9" class="st36" width="6.5" height="22.6"/>
	</g>
	<path class="st16" d="M606.7,239.8c-17.3,0-31.4,14.1-31.4,31.4c0,17.3,14.1,31.4,31.4,31.4c17.3,0,31.4-14.1,31.4-31.4
		C638.1,253.9,624,239.8,606.7,239.8z M624.6,269c-0.1-3.1-0.5-6.1-1.1-8.8c5.1,2.2,8.7,5.3,9.8,8.8H624.6z M620.2,269h-11.3v-12
		c3.4,0.2,6.7,0.7,9.7,1.5C619.4,261.7,620,265.3,620.2,269z M608.9,252.6v-8c3.1,1.1,5.9,4.3,7.9,8.9
		C614.3,253,611.6,252.7,608.9,252.6z M604.5,244.6v8c-2.8,0.1-5.4,0.4-7.9,0.9C598.6,248.9,601.4,245.7,604.5,244.6z M604.5,257v12
		h-11.3c0.2-3.8,0.7-7.3,1.6-10.5C597.8,257.7,601,257.2,604.5,257z M588.8,269H580c1.1-3.5,4.7-6.7,9.8-8.8
		C589.3,262.9,588.9,265.9,588.8,269z M588.8,273.4c0.1,3.1,0.5,6.1,1.1,8.8c-5.1-2.2-8.7-5.3-9.8-8.8H588.8z M593.2,273.4h11.3v12
		c-3.4-0.2-6.7-0.7-9.7-1.5C593.9,280.8,593.3,277.2,593.2,273.4z M604.5,289.8v8c-3.1-1.1-5.9-4.3-7.9-8.9
		C599.1,289.4,601.7,289.7,604.5,289.8z M608.9,297.8v-8c2.8-0.1,5.4-0.4,7.9-0.9C614.8,293.5,612,296.8,608.9,297.8z M608.9,285.4
		v-12h11.3c-0.2,3.8-0.7,7.3-1.6,10.5C615.6,284.8,612.3,285.3,608.9,285.4z M624.6,273.4h8.7c-1.1,3.5-4.7,6.7-9.8,8.8
		C624.1,279.5,624.5,276.5,624.6,273.4z M630.8,259.2c-2.4-1.7-5.4-3.2-8.7-4.3c-1.1-3.1-2.4-5.9-4-8.1
		C623.6,249.3,628.1,253.7,630.8,259.2z M595.3,246.8c-1.6,2.3-3,5-4,8.1c-3.3,1.1-6.3,2.5-8.7,4.3
		C585.3,253.7,589.8,249.3,595.3,246.8z M582.6,283.3c2.4,1.7,5.4,3.2,8.7,4.3c1.1,3.1,2.4,5.9,4,8.1
		C589.8,293.1,585.3,288.7,582.6,283.3z M618,295.7c1.6-2.3,3-5,4-8.1c3.3-1.1,6.3-2.5,8.7-4.3C628.1,288.7,623.6,293.1,618,295.7z"
		/>
	<path class="st16" d="M285.5,220.5h-11.8c-1.1,0-2-0.9-2-2v-2c0-1.1,0.9-2,2-2h11.8c1.1,0,2,0.9,2,2v2
		C287.5,219.6,286.6,220.5,285.5,220.5z"/>
	<path class="st16" d="M305.4,220.5h-11.8c-1.1,0-2-0.9-2-2v-2c0-1.1,0.9-2,2-2h11.8c1.1,0,2,0.9,2,2v2
		C307.4,219.6,306.5,220.5,305.4,220.5z"/>
	<path class="st16" d="M325.4,220.5h-11.8c-1.1,0-2-0.9-2-2v-2c0-1.1,0.9-2,2-2h11.8c1.1,0,2,0.9,2,2v2
		C327.4,219.6,326.5,220.5,325.4,220.5z"/>
	<path class="st16" d="M610.5,335.7h-11.8c-1.1,0-2-0.9-2-2v-2c0-1.1,0.9-2,2-2h11.8c1.1,0,2,0.9,2,2v2
		C612.5,334.8,611.6,335.7,610.5,335.7z"/>
	<path class="st16" d="M630.4,335.7h-11.8c-1.1,0-2-0.9-2-2v-2c0-1.1,0.9-2,2-2h11.8c1.1,0,2,0.9,2,2v2
		C632.4,334.8,631.5,335.7,630.4,335.7z"/>
	<path class="st16" d="M124.9,472.5h-11.8c-1.1,0-2-0.9-2-2v-2c0-1.1,0.9-2,2-2h11.8c1.1,0,2,0.9,2,2v2
		C126.9,471.6,126,472.5,124.9,472.5z"/>
	<path class="st16" d="M144.8,472.5h-11.8c-1.1,0-2-0.9-2-2v-2c0-1.1,0.9-2,2-2h11.8c1.1,0,2,0.9,2,2v2
		C146.8,471.6,145.9,472.5,144.8,472.5z"/>
	<path class="st16" d="M650.4,335.7h-11.8c-1.1,0-2-0.9-2-2v-2c0-1.1,0.9-2,2-2h11.8c1.1,0,2,0.9,2,2v2
		C652.4,334.8,651.5,335.7,650.4,335.7z"/>
	<path class="st16" d="M345.3,220.5h-11.8c-1.1,0-2-0.9-2-2v-2c0-1.1,0.9-2,2-2h11.8c1.1,0,2,0.9,2,2v2
		C347.3,219.6,346.4,220.5,345.3,220.5z"/>
	<path class="st37" d="M256.2,237.9h-11.8c-1.1,0-2-0.9-2-2v-2c0-1.1,0.9-2,2-2h11.8c1.1,0,2,0.9,2,2v2
		C258.1,237,257.3,237.9,256.2,237.9z"/>
	<path class="st37" d="M276.1,237.9h-11.8c-1.1,0-2-0.9-2-2v-2c0-1.1,0.9-2,2-2h11.8c1.1,0,2,0.9,2,2v2
		C278.1,237,277.2,237.9,276.1,237.9z"/>
	<path class="st37" d="M296,237.9h-11.8c-1.1,0-2-0.9-2-2v-2c0-1.1,0.9-2,2-2H296c1.1,0,2,0.9,2,2v2C298,237,297.1,237.9,296,237.9z
		"/>
	<path class="st37" d="M316,237.9h-11.8c-1.1,0-2-0.9-2-2v-2c0-1.1,0.9-2,2-2H316c1.1,0,2,0.9,2,2v2C318,237,317.1,237.9,316,237.9z
		"/>
	<path class="st37" d="M596.8,319.8h-11.8c-1.1,0-2-0.9-2-2v-2c0-1.1,0.9-2,2-2h11.8c1.1,0,2,0.9,2,2v2
		C598.8,318.9,597.9,319.8,596.8,319.8z"/>
	<path class="st37" d="M616.8,319.8H605c-1.1,0-2-0.9-2-2v-2c0-1.1,0.9-2,2-2h11.8c1.1,0,2,0.9,2,2v2
		C618.8,318.9,617.9,319.8,616.8,319.8z"/>
	<path class="st37" d="M636.7,319.8h-11.8c-1.1,0-2-0.9-2-2v-2c0-1.1,0.9-2,2-2h11.8c1.1,0,2,0.9,2,2v2
		C638.7,318.9,637.8,319.8,636.7,319.8z"/>
	<path class="st37" d="M656.7,319.8h-11.8c-1.1,0-2-0.9-2-2v-2c0-1.1,0.9-2,2-2h11.8c1.1,0,2,0.9,2,2v2
		C658.6,318.9,657.7,319.8,656.7,319.8z"/>
	<path class="st37" d="M108.2,457.6H96.4c-1.1,0-2-0.9-2-2v-2c0-1.1,0.9-2,2-2h11.8c1.1,0,2,0.9,2,2v2
		C110.2,456.7,109.3,457.6,108.2,457.6z"/>
	<path class="st37" d="M128.1,457.6h-11.8c-1.1,0-2-0.9-2-2v-2c0-1.1,0.9-2,2-2h11.8c1.1,0,2,0.9,2,2v2
		C130.1,456.7,129.2,457.6,128.1,457.6z"/>
	<path class="st37" d="M148.1,457.6h-11.8c-1.1,0-2-0.9-2-2v-2c0-1.1,0.9-2,2-2h11.8c1.1,0,2,0.9,2,2v2
		C150.1,456.7,149.2,457.6,148.1,457.6z"/>
	<path class="st16" d="M369.6,93.1h-11.8c-1.1,0-2-0.9-2-2v-2c0-1.1,0.9-2,2-2h11.8c1.1,0,2,0.9,2,2v2
		C371.5,92.2,370.6,93.1,369.6,93.1z"/>
	<path class="st16" d="M389.5,93.1h-11.8c-1.1,0-2-0.9-2-2v-2c0-1.1,0.9-2,2-2h11.8c1.1,0,2,0.9,2,2v2
		C391.5,92.2,390.6,93.1,389.5,93.1z"/>
	<path class="st16" d="M409.4,93.1h-11.8c-1.1,0-2-0.9-2-2v-2c0-1.1,0.9-2,2-2h11.8c1.1,0,2,0.9,2,2v2
		C411.4,92.2,410.5,93.1,409.4,93.1z"/>
	<path class="st16" d="M429.4,93.1h-11.8c-1.1,0-2-0.9-2-2v-2c0-1.1,0.9-2,2-2h11.8c1.1,0,2,0.9,2,2v2
		C431.4,92.2,430.5,93.1,429.4,93.1z"/>
	<g>
		<line class="st38" x1="438" y1="60.3" x2="438" y2="67.7"/>
		<line class="st38" x1="438" y1="60.3" x2="438" y2="67.7"/>
		<line class="st38" x1="441.7" y1="64" x2="434.3" y2="64"/>
		<line class="st38" x1="441.7" y1="64" x2="434.3" y2="64"/>
	</g>
	<g>
		<line class="st38" x1="221.4" y1="156.7" x2="221.4" y2="164.1"/>
		<line class="st38" x1="221.4" y1="156.7" x2="221.4" y2="164.1"/>
		<line class="st38" x1="225.1" y1="160.4" x2="217.7" y2="160.4"/>
		<line class="st38" x1="225.1" y1="160.4" x2="217.7" y2="160.4"/>
	</g>
	<g>
		<line class="st38" x1="570.6" y1="331.3" x2="570.6" y2="338.7"/>
		<line class="st38" x1="570.6" y1="331.3" x2="570.6" y2="338.7"/>
		<line class="st38" x1="574.3" y1="335" x2="566.9" y2="335"/>
		<line class="st38" x1="574.3" y1="335" x2="566.9" y2="335"/>
	</g>
	<g>
		<line class="st38" x1="129" y1="421.2" x2="129" y2="428.6"/>
		<line class="st38" x1="129" y1="421.2" x2="129" y2="428.6"/>
		<line class="st38" x1="132.7" y1="424.9" x2="125.3" y2="424.9"/>
		<line class="st38" x1="132.7" y1="424.9" x2="125.3" y2="424.9"/>
	</g>
	<g>
		<line class="st38" x1="389.9" y1="284.8" x2="389.9" y2="292.2"/>
		<line class="st38" x1="389.9" y1="284.8" x2="389.9" y2="292.2"/>
		<line class="st38" x1="393.6" y1="288.5" x2="386.2" y2="288.5"/>
		<line class="st38" x1="393.6" y1="288.5" x2="386.2" y2="288.5"/>
	</g>
	<g>
		<line class="st38" x1="620.9" y1="488.1" x2="620.9" y2="495.5"/>
		<line class="st38" x1="620.9" y1="488.1" x2="620.9" y2="495.5"/>
		<line class="st38" x1="624.6" y1="491.8" x2="617.2" y2="491.8"/>
		<line class="st38" x1="624.6" y1="491.8" x2="617.2" y2="491.8"/>
	</g>
	<circle class="st0" cx="142.3" cy="280.9" r="26.9"/>
	<circle class="st0" cx="319.5" cy="60.1" r="23"/>
	<circle class="st0" cx="274.3" cy="77.4" r="12.7"/>
</g>
</svg>
