<?xml version="1.0" encoding="utf-8"?>
<!-- Generator: Adobe Illustrator 20.1.0, SVG Export Plug-In . SVG Version: 6.00 Build 0)  -->
<svg version="1.1" id="Слой_1" xmlns="http://www.w3.org/2000/svg" xmlns:xlink="http://www.w3.org/1999/xlink" x="0px" y="0px"
	 viewBox="0 0 60 60" style="enable-background:new 0 0 60 60;" xml:space="preserve">
<style type="text/css">
	.st0{fill:#70B19D;}
	.st1{fill-rule:evenodd;clip-rule:evenodd;fill:#AC3131;}
	.st2{fill-rule:evenodd;clip-rule:evenodd;fill:#3A3F50;}
</style>
<circle class="st0" cx="29.1" cy="30.9" r="27.1"/>
<path class="st1" d="M45.4,29.9c-0.8-2.6-1.2-3.7-1.6-4.9c-0.4-1.6-0.4-1.2-0.8-2.5c-0.4-1.2-1.2-1.6-2-1.6c-1.7,0-0.7,0-2,0
	c-1.6,0-1.6,0-3.2,0c-0.8,0-2,0.4-2.4,1.6c-0.4,1.2-0.4,1.2-0.8,2.5c-0.4,1.2-1.2,3.7-1.6,4.9c-0.4,1.2-1.2,2.9,0,3.3
	c1.2,0.4,2-2.1,2.4-3.3c0.4-1.2,0.4-1.2,0.8-2.5c0.1-0.2,0.2-0.9,0.6-0.8c0.2,0.1,0,0.4-0.2,0.8c-0.3,1.2-2.8,9.1-2.8,9.1h3.2
	c0,0,0,8.9,0,9.9c0,0.8,0.3,1.7,1.3,1.7c1.1,0,1.4-0.8,1.4-1.7c0-1.5,0-7.9,0-8.7c0-0.8,0-1.2,0.2-1.2c0.2,0,0.2,0.4,0.2,1.2
	c0,0.7,0,7.1,0,8.7c0,0.5,0.2,1.6,1.4,1.6c1.1,0,1.4-1.1,1.4-1.6c0-3.3,0-9.9,0-9.9h3.2c0,0-2.1-7.8-2.5-9.1
	c-0.1-0.6-0.3-0.8-0.1-0.9c0.3-0.1,0.1,0,0.6,1.4c0.4,1.2,0.4,1.2,0.8,2.5c0.3,0.9,0.8,2.9,1.6,2.9C45.8,33.2,46.2,32.4,45.4,29.9z"
	/>
<path class="st2" d="M25.3,29.9c0-1.6,0-3.3,0-4.9c0-1.6,0.1-1.5,0-2.5c-0.4-1.2-1.2-1.6-2.1-1.6c-1.8,0-2.3,0-3.7,0
	c-1.7,0-2.5,0-4.1,0c-0.8,0-1.4-0.1-2,0.5c-0.8,0.9-0.7,1-0.7,3.7c0,1.3,0,3.6,0,5c0,1.3-0.2,3.3,1.1,3.3c1.2,0,1.2-0.9,1.2-2.2
	c0-1.9,0-2.3,0-3.4c0-1.2-0.1-1.4,0.2-1.4c0.2,0,0.2,0,0.2,1.3c0,1.2,0,17.8,0,18.7c0,0.8,0.4,1.7,1.7,1.7c1.2,0,1.7-0.7,1.7-1.5
	c0-1.5,0-7.9,0-8.6c0-0.8,0-1.2,0.2-1.2c0.2,0,0.2,0.4,0.2,1.2c0,0.7,0,7.1,0,8.6c0,0.5,0.5,1.6,1.8,1.6c0.8,0,1.6-1.1,1.6-1.6
	c0-3.3,0-17.9,0-18.9c0-0.6,0-1.3,0.2-1.3c0.2,0,0.2,0.2,0.2,1c0,0.9,0,1.9,0,3.2c0,2.2,0.3,2.7,1.2,2.7
	C25.4,33.2,25.3,31.1,25.3,29.9z"/>
<circle class="st2" cx="19.1" cy="17.2" r="3.2"/>
<circle class="st1" cx="38.2" cy="17.2" r="3.2"/>
<g>
</g>
<g>
</g>
<g>
</g>
<g>
</g>
<g>
</g>
<g>
</g>
<g>
</g>
<g>
</g>
<g>
</g>
<g>
</g>
<g>
</g>
<g>
</g>
<g>
</g>
<g>
</g>
<g>
</g>
</svg>
