<?xml version="1.0" encoding="utf-8"?>
<!-- Generator: Adobe Illustrator 20.1.0, SVG Export Plug-In . SVG Version: 6.00 Build 0)  -->
<svg version="1.1" id="Слой_1" xmlns="http://www.w3.org/2000/svg" xmlns:xlink="http://www.w3.org/1999/xlink" x="0px" y="0px"
	 viewBox="0 0 60 60" style="enable-background:new 0 0 60 60;" xml:space="preserve">
<style type="text/css">
	.st0{fill:#70B19D;}
	.st1{fill:#27364C;}
	.st2{fill:#0B0E10;}
	.st3{fill:#384558;}
	.st4{fill:#3C4F5F;}
	.st5{fill:#F2CF67;}
</style>
<circle class="st0" cx="30" cy="29.7" r="24.8"/>
<path class="st1" d="M36,19.9c0,0.4-0.3,0.7-0.7,0.7h-1.4c-0.4,0-0.7-0.3-0.7-0.7v-0.6c0-0.4,0.3-0.7,0.7-0.7h1.4
	c0.4,0,0.7,0.3,0.7,0.7V19.9z"/>
<path class="st1" d="M26.9,19.9c0,0.4-0.3,0.7-0.7,0.7h-1.4c-0.4,0-0.7-0.3-0.7-0.7v-0.6c0-0.4,0.3-0.7,0.7-0.7h1.4
	c0.4,0,0.7,0.3,0.7,0.7V19.9z"/>
<path class="st1" d="M14.5,29.6V41c0,0.8,0.6,1.4,1.4,1.4h28c0.8,0,1.4-0.6,1.4-1.4V29.6c-4.6,1.6-9.9,2.5-15.5,2.5
	C24.4,32.2,19.2,31.2,14.5,29.6z"/>
<path class="st2" d="M44,19.9H16c-0.8,0-1.4,0.6-1.4,1.4V30c4.6,1.6,9.9,2.5,15.5,2.5c5.6,0,10.8-0.9,15.5-2.5v-8.7
	C45.5,20.5,44.8,19.9,44,19.9z"/>
<path class="st3" d="M44,19.5H16c-0.8,0-1.4,0.6-1.4,1.4v8.7c4.6,1.6,9.9,2.5,15.5,2.5c5.6,0,10.8-0.9,15.5-2.5v-8.7
	C45.5,20.1,44.8,19.5,44,19.5z"/>
<path class="st4" d="M26.2,18.6L26.2,18.6L26.2,18.6l0.3-2.5c0-0.1,0.1-0.3,0.3-0.3h6.4c0.2,0,0.3,0.2,0.3,0.3l0.3,2.5l0,0h0h1.6
	l0,0l0,0L35,16c-0.1-0.9-0.8-1.6-1.6-1.6h-0.1h-6.6h-0.1c-0.8,0-1.5,0.7-1.6,1.6l-0.3,2.6l0,0h0H26.2z"/>
<path class="st5" d="M31.5,29.4h-3c-0.2,0-0.4,0.2-0.4,0.4V34c0,0.2,0.2,0.4,0.4,0.4h3c0.2,0,0.4-0.2,0.4-0.4v-4.2
	C31.9,29.6,31.7,29.4,31.5,29.4z"/>
<g>
</g>
<g>
</g>
<g>
</g>
<g>
</g>
<g>
</g>
<g>
</g>
<g>
</g>
<g>
</g>
<g>
</g>
<g>
</g>
<g>
</g>
<g>
</g>
<g>
</g>
<g>
</g>
<g>
</g>
</svg>
