<?xml version="1.0" encoding="utf-8"?>
<!-- Generator: Adobe Illustrator 20.1.0, SVG Export Plug-In . SVG Version: 6.00 Build 0)  -->
<svg version="1.1" id="Слой_1" xmlns="http://www.w3.org/2000/svg" xmlns:xlink="http://www.w3.org/1999/xlink" x="0px" y="0px"
	 viewBox="0 0 60 60" style="enable-background:new 0 0 60 60;" xml:space="preserve">
<style type="text/css">
	.st0{fill:#EBB831;}
	.st1{fill:#DD9134;}
	.st2{fill:#414650;}
	.st3{fill:#D0E0A2;}
</style>
<circle class="st0" cx="30.1" cy="29.6" r="26.6"/>
<path class="st1" d="M14.1,33.9l-2.8-1.4c-0.5-0.3-0.7-0.9-0.4-1.4l5.9-11.3c0.3-0.5,0.9-0.7,1.4-0.4l2.8,1.4
	c0.5,0.3,0.7,0.9,0.4,1.4l-5.9,11.3C15.2,34,14.6,34.2,14.1,33.9z"/>
<g>
	<path class="st2" d="M21.9,21.2c-0.2-0.5-0.5-0.9-0.9-1.1l-2.3-1.2c-0.4-0.2-1-0.3-1.4-0.1c-0.5,0.2-0.9,0.5-1.1,0.9l-5.6,10.9
		c-0.5,0.9-0.1,2.1,0.8,2.6l2.3,1.2c0.3,0.2,0.6,0.2,1,0.2c0.7,0,1.3-0.4,1.6-1l5.6-10.9C22,22.2,22.1,21.7,21.9,21.2z M20.7,22.1
		L15,33c-0.2,0.3-0.5,0.4-0.8,0.3L11.9,32c-0.3-0.2-0.4-0.5-0.3-0.8l5.6-10.9c0.1-0.1,0.2-0.3,0.4-0.3c0.1,0,0.1,0,0.2,0
		c0.1,0,0.2,0,0.3,0.1l2.3,1.2c0.1,0.1,0.3,0.2,0.3,0.4C20.8,21.8,20.7,21.9,20.7,22.1z"/>
</g>
<path class="st1" d="M38.2,20.1l2.6-1.7c0.5-0.3,1.1-0.2,1.4,0.3l7,10.6c0.3,0.5,0.2,1.1-0.3,1.4l-2.6,1.7c-0.5,0.3-1.1,0.2-1.4-0.3
	l-7-10.6C37.6,21,37.7,20.4,38.2,20.1z"/>
<g>
	<path class="st2" d="M49.6,28.7l-6.7-10.2c-0.3-0.4-0.7-0.7-1.2-0.8c-0.5-0.1-1,0-1.4,0.3L38,19.4c-0.4,0.3-0.7,0.7-0.8,1.2
		c-0.1,0.5,0,1,0.3,1.4l6.7,10.2c0.4,0.6,1,0.9,1.7,0.8c0.3,0,0.6-0.1,0.9-0.3l2.2-1.5C49.9,30.7,50.1,29.5,49.6,28.7z M48.3,30.2
		l-2.2,1.5c-0.3,0.2-0.7,0.1-0.9-0.2l-6.7-10.2c-0.1-0.1-0.1-0.3-0.1-0.5c0-0.2,0.1-0.3,0.3-0.4l2.2-1.5c0.1-0.1,0.2-0.1,0.3-0.1
		c0.1,0,0.1,0,0.2,0c0.2,0,0.3,0.1,0.4,0.3l6.7,10.2C48.7,29.6,48.6,30,48.3,30.2z"/>
</g>
<path class="st3" d="M16.5,32.1l1.5,1.7c0,0,6.4,8.2,11.8,8c0,0,2.5,1,3.9,0c1.4-1,1.1-1.3,1.1-1.3l-3.8-2.1l4.1,2
	c0,0,2.2,0.4,2.1-1.9l-5.1-2.8l5.3,2.5c0,0,2.2,0.4,2-2L33.6,33l6.1,3.1c0,0,2.7,0.5,1.9-2.5c0,0-10.9-7.4-11.9-7.3
	c0,0-2.8-1.2-6.5-1.7c-0.4-0.1-1.7-0.4-2.1-1.2L16.5,32.1z"/>
<g>
	<path class="st2" d="M42.1,33.5c0-0.1-0.1-0.3-0.2-0.3c0,0-2.8-1.9-5.6-3.7c-1.7-1.1-3-1.9-4.1-2.5c-1.6-0.9-2.1-1.1-2.5-1.2
		c-0.6-0.2-3.1-1.3-6.5-1.7c0,0-0.1,0-0.1,0c-0.4-0.1-1.3-0.3-1.6-0.9c-0.1-0.2-0.3-0.3-0.5-0.3c-0.2,0-0.4,0.1-0.5,0.3l-4.5,8.7
		c-0.1,0.2-0.1,0.5,0.1,0.7l1.5,1.7c0.2,0.2,1.7,2.2,3.9,4.1c3.1,2.7,5.8,4.1,8.2,4c0.4,0.1,1.5,0.5,2.6,0.4c0.6,0,1.3-0.2,1.8-0.6
		c0.6-0.5,1-0.8,1.2-1.2c0.4,0,1.2,0,1.8-0.5c0.5-0.4,0.7-0.9,0.7-1.7c0.4,0,1-0.1,1.4-0.5c0.4-0.4,0.7-0.9,0.7-1.6
		c0.5,0,1.3-0.1,1.9-0.7C42.3,35.5,42.4,34.6,42.1,33.5z M29.6,27L29.6,27L29.6,27z M40.9,35.3c-0.3,0.3-0.8,0.3-1,0.3l-6-3.1
		c-0.3-0.2-0.7,0-0.8,0.3c-0.2,0.3-0.1,0.7,0.2,0.8l5.4,3.1c0,0.3-0.1,0.7-0.3,0.9c-0.3,0.2-0.7,0.2-0.9,0.2l-5.2-2.5
		c-0.3-0.1-0.7,0-0.8,0.3c-0.2,0.3,0,0.7,0.2,0.8l4.8,2.7c0,0.3-0.1,0.6-0.3,0.7c-0.3,0.3-0.8,0.3-1,0.2l-4-2
		c-0.3-0.1-0.7,0-0.8,0.3c-0.2,0.3,0,0.7,0.3,0.8l3.3,1.8c-0.1,0.1-0.3,0.3-0.7,0.6c-0.9,0.7-2.7,0.2-3.3-0.1c-0.1,0-0.2,0-0.3,0
		c-5,0.2-11.2-7.7-11.3-7.7c0,0,0,0,0,0l-1.2-1.4l3.9-7.5c0.6,0.4,1.3,0.6,1.7,0.7c0,0,0.1,0,0.1,0c0,0,0.1,0,0.1,0
		c3.6,0.4,6.3,1.6,6.3,1.6c0.1,0,0.2,0.1,0.3,0.1c0.2,0,1.3,0.5,6.2,3.6c2.3,1.5,4.5,3,5.2,3.4C41.1,34.5,41.1,35,40.9,35.3z"/>
</g>
<path class="st3" d="M18.7,36.9L18.7,36.9c-0.6-0.4-0.8-1.3-0.4-2l0.5-0.7c0.4-0.6,1.3-0.8,2-0.4h0c0.6,0.4,0.8,1.3,0.4,2l-0.5,0.7
	C20.2,37.2,19.3,37.4,18.7,36.9z"/>
<g>
	<path class="st2" d="M21.9,34.7c-0.1-0.5-0.4-1-0.8-1.2c-0.9-0.6-2.1-0.4-2.7,0.5l-0.5,0.7c-0.6,0.9-0.4,2.1,0.5,2.7
		c0.3,0.2,0.8,0.3,1.2,0.3c0.1,0,0.2,0,0.3,0c0.5-0.1,1-0.4,1.2-0.8l0.5-0.7C21.8,35.7,22,35.2,21.9,34.7z M20.7,35.5l-0.5,0.7
		c-0.1,0.2-0.3,0.3-0.6,0.4c-0.2,0-0.5,0-0.7-0.1h0c-0.4-0.3-0.5-0.8-0.2-1.2l0.5-0.7c0.2-0.2,0.4-0.4,0.7-0.4c0.2,0,0.4,0,0.5,0.1
		c0.2,0.1,0.3,0.3,0.4,0.6C20.8,35.1,20.8,35.3,20.7,35.5z"/>
</g>
<path class="st3" d="M20.7,39.6L20.7,39.6c-0.7-0.5-0.9-1.5-0.4-2.2l2.3-3.5c0.5-0.7,1.5-0.9,2.2-0.4l0,0c0.7,0.5,0.9,1.5,0.4,2.2
	l-2.3,3.5C22.4,39.9,21.4,40.1,20.7,39.6z"/>
<g>
	<path class="st2" d="M26.1,34.4c-0.1-0.6-0.4-1.1-0.9-1.4c-0.5-0.3-1.1-0.4-1.6-0.3c-0.6,0.1-1.1,0.4-1.4,0.9l-2.3,3.5
		c-0.3,0.5-0.4,1.1-0.3,1.6c0.1,0.6,0.4,1.1,0.9,1.4c0.4,0.3,0.8,0.4,1.3,0.4c0.1,0,0.2,0,0.3,0c0.6-0.1,1.1-0.4,1.4-0.9l2.3-3.5
		C26.1,35.5,26.2,34.9,26.1,34.4z M24.7,35.3l-2.3,3.5c-0.1,0.2-0.4,0.4-0.6,0.4c-0.3,0.1-0.5,0-0.7-0.1l0,0
		c-0.2-0.1-0.4-0.4-0.4-0.6c-0.1-0.3,0-0.5,0.1-0.7l2.3-3.5c0.1-0.2,0.4-0.4,0.6-0.4c0,0,0.1,0,0.1,0c0.2,0,0.4,0,0.6,0.2
		c0.2,0.1,0.4,0.4,0.4,0.6C24.9,34.9,24.9,35.1,24.7,35.3z"/>
</g>
<path class="st3" d="M26.6,36.4c-0.2-0.1-0.3-0.2-0.5-0.1c-0.3,0-0.5,0.1-0.7,0.4l-1.8,2.7c-0.1,0.2-0.2,0.4-0.1,0.7
	c0,0.2,0.2,0.4,0.4,0.6h0c0.4,0.3,0.9,0.2,1.2-0.2l1.8-2.7C27,37.4,27,37.2,27,37C26.9,36.7,26.8,36.5,26.6,36.4z"/>
<path class="st2" d="M28.2,36.7c-0.1-0.6-0.4-1-0.9-1.3c-1-0.6-2.3-0.4-2.9,0.6l-1.8,2.7c-0.3,0.5-0.4,1-0.3,1.6
	c0.1,0.6,0.4,1,0.9,1.3c0.4,0.3,0.8,0.4,1.3,0.4c0.6,0,1.3-0.4,1.6-0.9l1.8-2.7C28.2,37.8,28.3,37.3,28.2,36.7z M23.9,40.6
	L23.9,40.6c-0.2-0.1-0.3-0.3-0.4-0.6c0-0.2,0-0.5,0.1-0.7l1.8-2.7c0.2-0.2,0.4-0.4,0.7-0.4c0.2,0,0.4,0,0.5,0.1
	c0.2,0.1,0.3,0.3,0.4,0.6c0,0.2,0,0.5-0.1,0.7l-1.8,2.7C24.8,40.7,24.3,40.8,23.9,40.6z"/>
<path class="st3" d="M26.3,42.5L26.3,42.5c-0.7-0.5-0.9-1.4-0.4-2.1l1-1.5c0.5-0.7,1.4-0.9,2.1-0.4v0c0.7,0.5,0.9,1.4,0.4,2.1
	l-1,1.5C27.9,42.8,27,42.9,26.3,42.5z"/>
<g>
	<path class="st2" d="M29.3,38c-0.5-0.3-1-0.4-1.6-0.3c-0.6,0.1-1,0.4-1.3,0.9l-1,1.5c-0.3,0.5-0.4,1-0.3,1.6c0.1,0.6,0.4,1,0.9,1.3
		c0.4,0.3,0.8,0.4,1.3,0.4c0.1,0,0.2,0,0.3,0c0.6-0.1,1-0.4,1.3-0.9l1-1.5C30.5,39.9,30.3,38.6,29.3,38z M28.9,40.2l-1,1.5
		c-0.1,0.2-0.3,0.3-0.6,0.4c-0.2,0-0.5,0-0.7-0.1c-0.2-0.1-0.3-0.3-0.4-0.6c0-0.2,0-0.5,0.1-0.7l1-1.5c0.1-0.2,0.3-0.3,0.6-0.4
		c0,0,0.1,0,0.1,0c0.2,0,0.4,0,0.6,0.2C29.1,39.2,29.2,39.8,28.9,40.2z"/>
</g>
<path class="st3" d="M38.5,22.8c0,0-0.4,0.9-3.7,0.2c0,0-4.6-1.2-8.6,0.6c0,0-2.1,2.4-3.1,4.9c0,0-0.5,2.1,1.8,1.3
	c2.3-0.8,3.1-2.6,3.1-2.6l1.3-0.7l11.9,6.8c0,0,0.4,0.6,2.6-2.3L38.5,22.8z"/>
<path class="st2" d="M38.3,21.6l-0.4,0.9c-0.1,0.1-0.8,0.4-3-0.1c-0.1,0-1.3-0.3-2.9-0.4c-1.6-0.1-3.9,0.1-6.1,1l-0.1,0.1l-0.1,0.1
	c-0.1,0.1-2.2,2.5-3.2,5.1l0,0l0,0c0,0.1-0.3,1.2,0.4,1.8c0.5,0.4,1.2,0.5,2.2,0.2c2.1-0.7,3.1-2.2,3.4-2.8l0.9-0.5l11.5,6.6
	c0.1,0.1,0.3,0.2,0.5,0.2c0,0,0.1,0,0.1,0c0.5,0,1.3-0.4,2.9-2.6l0.3-0.3L38.3,21.6z M41.4,32.6l-12.1-6.9l-1.6,0.9l-0.2,0.1
	l-0.1,0.2c0,0.1-0.7,1.6-2.7,2.3c-0.6,0.2-0.9,0.1-1,0.1c-0.1-0.1-0.1-0.4-0.1-0.6c0.8-2,2.5-4.1,2.9-4.5c3.8-1.6,8.1-0.5,8.1-0.5
	l0,0c1.5,0.3,2.6,0.4,3.4,0.2c0.1,0,0.2-0.1,0.3-0.1l4.8,7.2C42.1,32.1,41.6,32.5,41.4,32.6z"/>
<ellipse transform="matrix(0.9989 -4.595196e-02 4.595196e-02 0.9989 -0.9985 0.8613)" class="st2" cx="18.2" cy="22.1" rx="0.9" ry="0.9"/>
<ellipse transform="matrix(0.9989 -4.595196e-02 4.595196e-02 0.9989 -1.3963 0.6769)" class="st2" cx="14" cy="30.7" rx="0.9" ry="0.9"/>
<ellipse transform="matrix(0.9989 -4.595230e-02 4.595230e-02 0.9989 -0.9418 1.9035)" class="st2" cx="40.9" cy="21.4" rx="0.9" ry="0.9"/>
<ellipse transform="matrix(0.9989 -4.595196e-02 4.595196e-02 0.9989 -1.2946 2.1492)" class="st2" cx="46.1" cy="29.2" rx="0.9" ry="0.9"/>
<path class="st2" d="M9.5,29.4l1,0.5c0.2,0.1,0.4,0,0.5-0.2l4.8-9.3c0.1-0.2,0-0.4-0.2-0.5l-1-0.5c-0.2-0.1-0.4,0-0.5,0.2l-4.8,9.3
	C9.2,29.1,9.3,29.4,9.5,29.4z"/>
<path class="st2" d="M44,17.7l-1,0.6c-0.2,0.1-0.2,0.4-0.1,0.5l5.8,8.8c0.1,0.2,0.4,0.2,0.5,0.1l1-0.6c0.2-0.1,0.2-0.4,0.1-0.5
	l-5.8-8.8C44.4,17.6,44.2,17.6,44,17.7z"/>
<g>
</g>
<g>
</g>
<g>
</g>
<g>
</g>
<g>
</g>
<g>
</g>
<g>
</g>
<g>
</g>
<g>
</g>
<g>
</g>
<g>
</g>
<g>
</g>
<g>
</g>
<g>
</g>
<g>
</g>
</svg>
