<?xml version="1.0" encoding="utf-8"?>
<!-- Generator: Adobe Illustrator 20.1.0, SVG Export Plug-In . SVG Version: 6.00 Build 0)  -->
<svg version="1.1" id="Слой_1" xmlns="http://www.w3.org/2000/svg" xmlns:xlink="http://www.w3.org/1999/xlink" x="0px" y="0px"
	 viewBox="0 0 200 200" style="enable-background:new 0 0 200 200;" xml:space="preserve">
<style type="text/css">
	.st0{fill:#184F78;}
	.st1{opacity:0.3;}
	.st2{fill:#467293;}
	.st3{fill:#FDC00F;}
	.st4{fill:#FED96F;}
</style>
<g>
	<path class="st0" d="M47.7,89.4v50.1c0,5.7,40.2,17.9,51.7,17.9s51.7-12.2,51.7-17.9V89.4H47.7z"/>
	<polygon class="st1" points="47.7,112.6 99.4,132.1 151.1,112.6 151.1,94.4 47.7,94.4 	"/>
	<polygon class="st0" points="99.4,47.4 2,84.2 99.4,121 196.8,84.2 	"/>
	<polygon class="st2" points="99.4,121 2,84.2 2,89.2 99.4,126 196.8,89.2 196.8,84.2 	"/>
	<g>
		<path class="st3" d="M157.3,129.9h-0.4h-3.6h-0.4c0,0-9.5,13.5-3.3,27c1.5,0,2.6,0,3.6,0h0c0.1,0,0.6,0,3.7,0c0,0,0,0,0,0
			c0.9,0,2.1,0,3.6,0C166.8,143.4,157.3,129.9,157.3,129.9z"/>
		<g>
			<path class="st4" d="M158.5,154.7c0.2-1.2,0.1-2.7,0.2-4.3c0-0.8,0-1.6-0.1-2.4c-0.1-0.8-0.1-1.6-0.2-2.5c0-0.8-0.2-1.6-0.4-2.4
				c-0.1-0.8-0.3-1.6-0.4-2.3c-0.4-1.5-0.7-2.8-1.1-4c-0.7-2.3-1.3-3.7-1.3-3.7c0,0,0.5,1.5,1,3.8c0.3,1.1,0.5,2.6,0.8,4
				c0.1,0.7,0.2,1.5,0.2,2.3c0.1,0.8,0.2,1.6,0.2,2.4c0,0.8,0,1.6,0,2.4c0,0.8,0,1.5-0.1,2.3c-0.2,1.5-0.2,2.9-0.5,4
				c-0.2,1.1-0.4,1.9-0.6,2.6c0.2,0,0.3,0,0.6,0c0,0,0,0,0,0c0.4,0,0.8,0,1.2,0C158.3,156.3,158.4,155.6,158.5,154.7z"/>
			<path class="st4" d="M153.2,154.3c-0.3-1.1-0.3-2.5-0.5-4c-0.1-0.7-0.1-1.5-0.1-2.3c0-0.8,0-1.6,0-2.4c0-0.8,0.1-1.6,0.2-2.4
				c0.1-0.8,0.2-1.6,0.2-2.3c0.3-1.5,0.4-2.9,0.8-4c0.5-2.3,1-3.8,1-3.8c0,0-0.6,1.4-1.3,3.7c-0.4,1.1-0.7,2.5-1.1,4
				c-0.1,0.7-0.3,1.5-0.4,2.3c-0.1,0.8-0.3,1.6-0.4,2.4c-0.1,0.8-0.1,1.6-0.2,2.5c-0.1,0.8-0.1,1.6-0.1,2.4c0.1,1.6,0,3,0.2,4.3
				c0.1,0.9,0.2,1.6,0.3,2.2c0.4,0,0.9,0,1.2,0h0c0,0,0.2,0,0.6,0C153.7,156.3,153.5,155.4,153.2,154.3z"/>
			<path class="st4" d="M161.6,152.7c0.1-0.8,0.2-1.6,0.2-2.5c0-0.9,0-1.7-0.1-2.6c0-0.9-0.3-1.8-0.4-2.6c-0.7-3.5-2.3-6.5-3.5-8.6
				c-1.3-2.1-2.3-3.3-2.3-3.3s0.9,1.3,2,3.5c1.1,2.2,2.3,5.3,2.8,8.7c0.1,0.8,0.2,1.7,0.2,2.5c0,0.8,0,1.6-0.1,2.4
				c0,0.8-0.1,1.5-0.3,2.2c-0.1,0.7-0.3,1.3-0.5,1.9c-0.3,1.2-0.8,2-1.1,2.6c0,0,0,0,0,0.1c0.6,0,1.2,0,1.9,0
				c0.1-0.3,0.2-0.6,0.3-0.9c0.1-0.4,0.2-0.7,0.3-1.2C161.4,154.3,161.5,153.5,161.6,152.7z"/>
			<path class="st4" d="M155.1,133.2l-0.9,23.7c0.4,0,1,0,1.8,0L155.1,133.2z"/>
			<path class="st4" d="M151.6,156.9c-0.3-0.6-0.7-1.5-1.1-2.6c-0.2-0.6-0.4-1.2-0.5-1.9c-0.2-0.7-0.3-1.4-0.3-2.2
				c-0.1-0.8-0.1-1.6-0.1-2.4c0-0.8,0.1-1.6,0.2-2.5c0.5-3.3,1.7-6.5,2.8-8.7c1.1-2.2,2-3.5,2-3.5s-1,1.2-2.3,3.3
				c-1.2,2.1-2.7,5.1-3.5,8.6c-0.1,0.9-0.4,1.7-0.4,2.6c-0.1,0.9-0.2,1.8-0.1,2.6c0,0.9,0.1,1.7,0.2,2.5c0.1,0.8,0.2,1.5,0.4,2.2
				c0.1,0.4,0.2,0.8,0.3,1.2c0.1,0.3,0.2,0.6,0.3,0.8C150.4,156.9,151,156.9,151.6,156.9C151.6,156.9,151.6,156.9,151.6,156.9z"/>
		</g>
	</g>
	<circle class="st4" cx="155.1" cy="129.9" r="4.9"/>
	<ellipse class="st1" cx="99.4" cy="84.2" rx="15.5" ry="9.2"/>
	<path class="st3" d="M114.6,86c-0.5,1.5-1.7,2.9-3.3,4l-0.1,0.3l41.4,12.2v27.4h5V98.8L114.6,86z"/>
	<ellipse class="st0" cx="97.2" cy="82.9" rx="13.3" ry="7.9"/>
</g>
<g>
</g>
<g>
</g>
<g>
</g>
<g>
</g>
<g>
</g>
<g>
</g>
<g>
</g>
<g>
</g>
<g>
</g>
<g>
</g>
<g>
</g>
<g>
</g>
<g>
</g>
<g>
</g>
<g>
</g>
</svg>
