<?xml version="1.0" encoding="utf-8"?>
<!-- Generator: Adobe Illustrator 20.1.0, SVG Export Plug-In . SVG Version: 6.00 Build 0)  -->
<svg version="1.1" id="Слой_1" xmlns="http://www.w3.org/2000/svg" xmlns:xlink="http://www.w3.org/1999/xlink" x="0px" y="0px"
	 viewBox="0 0 60 60" style="enable-background:new 0 0 60 60;" xml:space="preserve">
<style type="text/css">
	.st0{fill:#454E51;}
	.st1{fill:#0B0E10;}
	.st2{fill:#343940;}
	.st3{fill:#EED7AB;}
	.st4{fill:#CCB587;}
	.st5{fill:#A79477;}
	.st6{fill:#BCA580;}
	.st7{fill:#907F68;}
</style>
<circle class="st0" cx="30" cy="30" r="26.9"/>
<path class="st1" d="M49.3,38.3c0-0.1,0-0.2,0-0.4c-0.2-2.7-0.4-5.3-0.6-8c-0.2-2.3-0.4-4.7-0.6-7c0-0.1-0.1-0.2-0.2-0.2
	c-0.3,0-0.5,0-0.8,0.1c0-0.2-0.1-0.3-0.3-0.4c-0.2-0.1-0.4-0.2-0.6-0.2c-0.3-0.1-0.4-0.2-0.3-0.5c0-0.6-0.1-1-0.7-1.1
	c-0.1,0-0.1-0.1-0.1-0.2c0-0.2-0.1-0.5-0.1-0.7c0-0.1-0.1-0.2-0.2-0.3c-0.3-0.1-0.7-0.2-1-0.3c-0.1,0-0.1-0.1-0.2-0.2
	c0-0.3-0.1-0.6-0.1-1c0-0.1-0.1-0.2-0.2-0.2c-0.8-0.1-1.7-0.2-2.5-0.2c-1.8-0.1-3.6,0.1-5.3,0.7c-1.8,0.6-3.4,1.5-4.6,3
	c-0.2,0.2-0.4,0.5-0.5,0.7c-0.2-0.3-0.4-0.6-0.6-0.9c-1.2-1.4-2.7-2.3-4.5-2.9c-2.6-0.8-5.3-0.8-8-0.5c-0.1,0-0.2,0.1-0.2,0.2
	c0,0.3-0.1,0.6-0.1,0.9c0,0.1-0.1,0.2-0.2,0.2c-0.3,0.1-0.6,0.2-1,0.3c-0.1,0-0.2,0.1-0.2,0.2c0,0.2,0,0.4,0,0.6
	c0,0.2-0.1,0.3-0.3,0.4c-0.1,0-0.3,0.1-0.4,0.2c-0.1,0-0.1,0.1-0.1,0.2c0,0.3,0,0.5-0.1,0.8c0,0.1-0.1,0.2-0.2,0.2
	c-0.3,0.1-0.5,0.2-0.8,0.3c-0.2,0.1-0.3,0.1-0.2,0.4c-0.3,0-0.6,0-0.8-0.1c-0.2,0-0.2,0-0.3,0.2c-0.1,0.9-0.1,1.9-0.2,2.8
	c-0.2,1.9-0.3,3.9-0.5,5.8c-0.1,1.4-0.2,2.8-0.3,4.1c-0.1,0.9-0.1,1.7-0.2,2.6c0,0.2,0,0.2,0.2,0.2c0.7-0.1,1.5-0.2,2.2-0.3
	c2-0.2,3.9-0.5,5.9-0.7c1.6-0.2,3.1-0.2,4.7-0.3c1.1-0.1,2.2-0.1,3.3-0.1c0.1,0,0.2,0,0.2,0.1c0.2,0.4,0.5,0.6,0.8,0.7
	c1.2,0.5,2.5,0.5,3.7,0c0.3-0.1,0.6-0.4,0.8-0.7c0,0,0.1-0.1,0.2-0.1c0.8,0,1.5,0,2.3,0.1c2.2,0.1,4.3,0.3,6.5,0.5
	c1.6,0.1,3.1,0.3,4.7,0.5c0.9,0.1,1.7,0.2,2.6,0.4C49.2,38.5,49.3,38.5,49.3,38.3z"/>
<path class="st2" d="M27.2,36.1c-3.2-0.3-6.5-0.3-9.7-0.1c-1.7,0.1-3.3,0.4-5,0.8c-0.2,0.1-0.4,0.1-0.7,0.2c0.2-1.7,0.4-3.5,0.6-5.2
	c0,0,0,0,0,0c0,0.4-0.1,0.9-0.1,1.3c-0.1,0.9-0.2,1.8-0.2,2.7c0,0.2,0,0.2,0.2,0.2c1.6-0.7,3.3-0.9,5-1.1c2.5-0.2,4.9,0,7.4,0.4
	c1.3,0.2,2.5,0.5,3.8,0.7c0.1,0,0.1,0,0.2,0.1C28.1,36.1,27.7,36.1,27.2,36.1z"/>
<path class="st2" d="M26.2,35.4c-2.8-0.5-5.5-0.8-8.3-0.7c-1.9,0.1-3.7,0.3-5.5,1c0,0-0.1,0-0.1,0c0.1-0.7,0.1-1.4,0.2-2
	c0.1-1.4,0.2-2.8,0.4-4.2c0.2-1.9,0.3-3.8,0.5-5.7c0-0.4,0.1-0.8,0.1-1.2c0-0.1,0.1-0.2,0.2-0.2c0.3-0.1,0.5-0.2,0.9-0.3
	c0,0.3-0.1,0.6-0.1,0.9c-0.2,2-0.4,4.1-0.6,6.1c-0.1,1.6-0.3,3.2-0.4,4.9c0,0.2,0,0.2,0.2,0.2c3-0.7,6-0.7,9-0.2
	c2.1,0.4,4.1,0.9,6.1,1.7c0.1,0,0.1,0.1,0.2,0.1C28,35.8,27.1,35.6,26.2,35.4z"/>
<path class="st2" d="M13.6,34.1c0-0.1,0-0.1,0-0.2c0.1-1.5,0.3-2.9,0.4-4.4c0.1-1.3,0.2-2.6,0.4-3.9c0.1-1.5,0.3-2.9,0.4-4.4
	c0-0.1,0.1-0.2,0.1-0.2c0.1-0.1,0.3-0.2,0.5-0.2c0,0.1,0,0.2,0,0.2c-0.1,1.6-0.3,3.2-0.4,4.8c-0.2,1.6-0.3,3.2-0.5,4.8
	c-0.1,0.7-0.1,1.4-0.2,2.2c0,0.2,0,0.3,0.2,0.2c2.4-0.9,4.8-0.9,7.2-0.4c2.7,0.6,5.2,1.7,7.5,3.3C24.1,33.9,19,33,13.6,34.1z"/>
<path class="st2" d="M29.1,35.6c-2.2-1.4-4.5-2.5-7-3.1c-2.5-0.6-5-0.6-7.5,0.3c0,0,0,0-0.1,0c0-0.5,0.1-0.9,0.1-1.3
	c0.1-1.3,0.2-2.6,0.4-3.9c0.2-1.8,0.3-3.6,0.5-5.3c0.1-0.8,0.2-1.6,0.2-2.4c0-0.1,0.1-0.2,0.2-0.2c0.3-0.1,0.6-0.2,1-0.3
	c0,0.3,0,0.5-0.1,0.7c-0.2,2.6-0.5,5.1-0.7,7.7c-0.1,1.2-0.2,2.5-0.4,3.7c0,0.2,0,0.2,0.2,0.2c4.9-1.1,9.1,0.1,12.8,3.4
	c0.3,0.2,0.5,0.5,0.7,0.8C29.2,35.6,29.1,35.6,29.1,35.6z"/>
<path class="st2" d="M29.9,35.9c0,0.1,0,0.2,0,0.3c-1.8-2-3.9-3.6-6.4-4.5c-2.5-0.9-5.1-1-7.8-0.4c0.4-4.5,0.9-8.9,1.3-13.4
	c0.4-0.1,0.9-0.1,1.3-0.1c1.9-0.2,3.8-0.1,5.6,0.3c1.9,0.5,3.6,1.3,4.9,2.7c0.4,0.4,0.7,0.8,1,1.3c0.1,0.1,0.1,0.2,0.1,0.3
	c0,1.7,0,3.5,0,5.2c0,0.8-0.1,1.5-0.1,2.3C30,31.8,29.9,33.8,29.9,35.9z"/>
<path class="st2" d="M30.2,36.1c0-0.1,0-0.2,0-0.3c0-1.8,0-3.6,0-5.5c0-2.6,0-5.3,0-7.9c0-0.2,0-0.4,0.2-0.5
	c0.8-1.2,1.9-2.1,3.2-2.8c1.4-0.8,2.9-1.2,4.5-1.3c1.6-0.2,3.3-0.1,4.9,0.1c0.2,0,0.2,0.1,0.3,0.3c0.2,1.9,0.4,3.8,0.5,5.8
	c0.1,1.5,0.3,3.1,0.4,4.6c0.1,0.8,0.2,1.7,0.2,2.5c0,0.1,0,0.1,0,0.2C38.8,30.1,34.1,31.9,30.2,36.1z"/>
<path class="st2" d="M30.9,35.7C30.9,35.7,30.9,35.7,30.9,35.7c0.2-0.3,0.5-0.6,0.8-0.8c2.1-1.9,4.6-3.2,7.4-3.6
	c1.8-0.3,3.6-0.2,5.3,0.2c0.2,0.1,0.2,0,0.2-0.2c-0.2-1.6-0.3-3.3-0.5-4.9c-0.1-1.6-0.3-3.1-0.4-4.7c-0.1-0.7-0.1-1.4-0.2-2.1
	c0-0.1,0-0.2,0-0.4c0.4,0.1,0.7,0.2,1.1,0.4c0,0,0.1,0.1,0.1,0.2c0.2,2,0.4,4.1,0.6,6.1c0.2,2.1,0.4,4.1,0.6,6.2
	c0,0.2,0,0.5,0.1,0.7c-0.1,0-0.1,0-0.2,0c-2.3-0.8-4.6-0.9-7-0.4c-2.8,0.6-5.3,1.7-7.7,3.3C31,35.7,31,35.7,30.9,35.7z"/>
<path class="st2" d="M32.6,34.9c2-1.1,4.1-2,6.4-2.4c2.3-0.4,4.6-0.3,6.8,0.5c0.2,0.1,0.2,0,0.2-0.2c-0.2-2.1-0.4-4.2-0.6-6.3
	c-0.2-1.9-0.3-3.7-0.5-5.6c0,0,0-0.1,0-0.2c0.2,0.1,0.4,0.2,0.5,0.3c0.1,0,0.1,0.1,0.1,0.2c0.1,1.3,0.2,2.6,0.4,3.9
	c0.2,1.8,0.3,3.7,0.5,5.5c0.1,1.1,0.2,2.3,0.3,3.4c0,0,0,0.1,0,0.2c-5.4-1.2-10.5-0.3-15.6,1.7C31.6,35.5,32.1,35.2,32.6,34.9z"/>
<path class="st2" d="M31.3,36c0.2-0.1,0.4-0.2,0.6-0.2c3.4-1.3,6.9-2,10.6-2c1.4,0,2.8,0.2,4.2,0.5c0.2,0.1,0.2,0,0.2-0.2
	c-0.2-2-0.4-4.1-0.6-6.1c-0.1-1.6-0.3-3.3-0.4-4.9c0-0.3,0-0.5-0.1-0.8c0.3,0.1,0.6,0.2,0.9,0.4c0,0,0.1,0.1,0.1,0.2
	c0.1,1.6,0.3,3.3,0.4,4.9c0.2,1.9,0.3,3.8,0.5,5.7c0.1,0.8,0.1,1.6,0.2,2.4c-0.1,0-0.1,0-0.1,0c-1.3-0.5-2.8-0.8-4.2-0.9
	c-2.7-0.2-5.4-0.1-8.1,0.4C34.2,35.4,32.8,35.7,31.3,36C31.4,36,31.3,36,31.3,36z"/>
<path class="st2" d="M46.9,36.6c-1.5-0.4-3-0.5-4.5-0.6c-2.4-0.2-4.7-0.2-7.1,0c-1.1,0.1-2.2,0.2-3.3,0.2c-0.1,0-0.2,0-0.3,0
	c0,0,0,0,0,0c0.5-0.1,1-0.2,1.5-0.3c2.7-0.5,5.5-0.9,8.3-0.9c1.8,0,3.6,0.2,5.4,0.7c0.3,0.1,0.7,0.2,1,0.4c0.2,0.1,0.2,0,0.2-0.2
	c-0.1-1-0.2-2.1-0.3-3.1c0-0.3,0-0.6,0-0.9c0.2,1.7,0.4,3.4,0.6,5.1C47.9,36.9,47.4,36.7,46.9,36.6z"/>
<path class="st3" d="M44.5,31.3c0-0.1,0-0.1,0-0.2c-0.1-0.8-0.2-1.7-0.2-2.5c-0.1-1.5-0.3-3.1-0.4-4.6c-0.2-1.9-0.4-3.8-0.5-5.8
	c0-0.2-0.1-0.3-0.3-0.3c-1.6-0.2-3.3-0.3-4.9-0.1c-1.6,0.2-3.1,0.6-4.5,1.3c-1.3,0.7-2.4,1.6-3.2,2.8c-0.1,0.2-0.2,0.3-0.2,0.5
	c0,2.6,0,5.3,0,7.9c0,1.8,0,3.6,0,5.5c0,0.1,0,0.2,0,0.3C34.1,31.9,38.8,30.1,44.5,31.3z"/>
<path class="st3" d="M30,27.5c0-1.7,0-3.5,0-5.2c0-0.1,0-0.3-0.1-0.3c-0.3-0.4-0.6-0.9-1-1.3c-1.4-1.4-3.1-2.2-4.9-2.7
	c-1.9-0.4-3.7-0.5-5.6-0.3c-0.4,0-0.9,0.1-1.3,0.1c-0.4,4.5-0.9,8.9-1.3,13.4c2.7-0.6,5.2-0.5,7.8,0.4c2.5,0.9,4.6,2.4,6.4,4.5
	c0-0.1,0-0.2,0-0.3c0-2,0-4,0-6.1C30,29,30,28.3,30,27.5z"/>
<path class="st4" d="M45.7,32.8c0,0,0.1,0,0.2,0c0-0.3,0-0.5-0.1-0.7c-0.2-2.1-0.4-4.1-0.6-6.2c-0.2-2-0.4-4.1-0.6-6.1
	c0-0.1,0-0.1-0.1-0.2c-0.3-0.1-0.7-0.2-1.1-0.4c0,0.2,0,0.3,0,0.4c0.1,0.7,0.1,1.4,0.2,2.1c0.1,1.6,0.3,3.1,0.4,4.7
	c0.2,1.6,0.3,3.3,0.5,4.9c0,0.2,0,0.2-0.2,0.2c-1.8-0.5-3.5-0.5-5.3-0.2c-2.8,0.4-5.3,1.7-7.4,3.6c-0.3,0.3-0.5,0.5-0.8,0.8
	c0,0,0,0,0,0c0.1,0,0.1-0.1,0.2-0.1c2.4-1.5,4.9-2.7,7.7-3.3C41.1,31.9,43.4,32,45.7,32.8z"/>
<path class="st4" d="M28.6,34.9c-3.7-3.3-7.9-4.5-12.8-3.4c-0.2,0-0.2,0-0.2-0.2c0.1-1.2,0.2-2.5,0.4-3.7c0.2-2.6,0.5-5.1,0.7-7.7
	c0-0.2,0-0.4,0.1-0.7c-0.3,0.1-0.6,0.2-1,0.3c-0.1,0-0.2,0.1-0.2,0.2c-0.1,0.8-0.1,1.6-0.2,2.4c-0.2,1.8-0.3,3.6-0.5,5.3
	c-0.1,1.3-0.2,2.6-0.4,3.9c0,0.4-0.1,0.9-0.1,1.3c0.1,0,0.1,0,0.1,0c2.5-0.9,5-0.9,7.5-0.3c2.5,0.6,4.9,1.7,7,3.1
	c0.1,0,0.1,0.1,0.2,0.1C29.1,35.4,28.8,35.2,28.6,34.9z"/>
<path class="st5" d="M22.6,34.2c-3-0.5-6-0.5-9,0.2c-0.2,0-0.2,0-0.2-0.2c0.2-1.6,0.3-3.2,0.4-4.9c0.2-2,0.4-4.1,0.6-6.1
	c0-0.3,0.1-0.6,0.1-0.9c-0.3,0.1-0.6,0.2-0.9,0.3c-0.1,0-0.1,0.1-0.2,0.2c0,0.4-0.1,0.8-0.1,1.2c-0.2,1.9-0.3,3.8-0.5,5.7
	c-0.1,1.4-0.2,2.8-0.4,4.2c-0.1,0.7-0.1,1.3-0.2,2c0.1,0,0.1,0,0.1,0c1.8-0.7,3.6-1,5.5-1c2.8-0.1,5.6,0.2,8.3,0.7
	c0.9,0.2,1.8,0.4,2.8,0.6c-0.1,0-0.2-0.1-0.2-0.1C26.8,35.1,24.7,34.5,22.6,34.2z"/>
<path class="st5" d="M43.6,34.8c1.4,0.1,2.8,0.4,4.2,0.9c0,0,0.1,0,0.1,0c-0.1-0.8-0.1-1.6-0.2-2.4c-0.2-1.9-0.3-3.8-0.5-5.7
	c-0.1-1.6-0.3-3.3-0.4-4.9c0-0.1,0-0.1-0.1-0.2c-0.3-0.1-0.6-0.2-0.9-0.4c0,0.3,0.1,0.6,0.1,0.8c0.1,1.6,0.3,3.3,0.4,4.9
	c0.2,2,0.4,4.1,0.6,6.1c0,0.2,0,0.2-0.2,0.2c-1.4-0.3-2.8-0.5-4.2-0.5c-3.7-0.1-7.2,0.7-10.6,2c-0.2,0.1-0.4,0.2-0.6,0.2
	c0.1,0,0.1,0,0.1,0c1.4-0.3,2.8-0.6,4.2-0.8C38.2,34.8,40.9,34.6,43.6,34.8z"/>
<path class="st6" d="M46.7,34.1c0-0.1,0-0.1,0-0.2c-0.1-1.1-0.2-2.3-0.3-3.4c-0.2-1.8-0.3-3.7-0.5-5.5c-0.1-1.3-0.2-2.6-0.4-3.9
	c0-0.1,0-0.2-0.1-0.2c-0.2-0.1-0.3-0.2-0.5-0.3c0,0.1,0,0.1,0,0.2c0.2,1.9,0.3,3.7,0.5,5.6c0.2,2.1,0.4,4.2,0.6,6.3
	c0,0.2,0,0.2-0.2,0.2c-2.2-0.8-4.5-0.9-6.8-0.5c-2.3,0.4-4.4,1.3-6.4,2.4c-0.5,0.3-1,0.6-1.5,0.9C36.2,33.8,41.3,33,46.7,34.1z"/>
<path class="st6" d="M14.4,33c-0.2,0.1-0.2,0-0.2-0.2c0.1-0.7,0.1-1.4,0.2-2.2c0.2-1.6,0.3-3.2,0.5-4.8c0.2-1.6,0.3-3.2,0.4-4.8
	c0-0.1,0-0.1,0-0.2c-0.2,0.1-0.3,0.2-0.5,0.2c-0.1,0-0.1,0.1-0.1,0.2c-0.1,1.5-0.3,2.9-0.4,4.4c-0.1,1.3-0.2,2.6-0.4,3.9
	c-0.1,1.5-0.3,2.9-0.4,4.4c0,0.1,0,0.1,0,0.2c5.4-1.2,10.6-0.3,15.6,1.7c-2.3-1.5-4.8-2.7-7.5-3.3C19.2,32.1,16.8,32.1,14.4,33z"/>
<path class="st7" d="M24.7,35.4c-2.4-0.4-4.9-0.6-7.4-0.4c-1.7,0.1-3.4,0.4-5,1.1c-0.2,0.1-0.2,0.1-0.2-0.2c0.1-0.9,0.2-1.8,0.2-2.7
	c0-0.4,0.1-0.9,0.1-1.3c0,0,0,0,0,0c-0.2,1.7-0.4,3.4-0.6,5.2c0.3-0.1,0.5-0.2,0.7-0.2c1.6-0.5,3.3-0.7,5-0.8
	c3.2-0.3,6.5-0.2,9.7,0.1c0.5,0,0.9,0.1,1.4,0.1c-0.1-0.1-0.1-0.1-0.2-0.1C27.2,35.8,25.9,35.6,24.7,35.4z"/>
<path class="st7" d="M47.9,32.8c0.1,1,0.2,2.1,0.3,3.1c0,0.2,0,0.2-0.2,0.2c-0.3-0.1-0.7-0.3-1-0.4c-1.8-0.5-3.6-0.7-5.4-0.7
	c-2.8,0-5.6,0.3-8.3,0.9c-0.5,0.1-1,0.2-1.5,0.3c0,0,0,0,0,0c0.1,0,0.2,0,0.3,0c1.1-0.1,2.2-0.2,3.3-0.2c2.4-0.1,4.7-0.1,7.1,0
	c1.5,0.1,3,0.3,4.5,0.6c0.5,0.1,1,0.3,1.6,0.4c-0.2-1.7-0.4-3.4-0.6-5.1C47.9,32.2,47.9,32.5,47.9,32.8z"/>
<g>
</g>
<g>
</g>
<g>
</g>
<g>
</g>
<g>
</g>
<g>
</g>
<g>
</g>
<g>
</g>
<g>
</g>
<g>
</g>
<g>
</g>
<g>
</g>
<g>
</g>
<g>
</g>
<g>
</g>
</svg>
